<svg xmlns="http://www.w3.org/2000/svg" xmlns:xlink="http://www.w3.org/1999/xlink" width="480" zoomAndPan="magnify" viewBox="0 0 360 406.499988" height="542" preserveAspectRatio="xMidYMid meet" version="1.0"><defs><clipPath id="ef00ddf022"><path d="M 50.421875 203 L 137.507812 203 L 137.507812 290.089844 L 50.421875 290.089844 Z M 50.421875 203 " clip-rule="nonzero"/></clipPath><clipPath id="d94ab25131"><path d="M 93.964844 203 C 69.917969 203 50.421875 222.496094 50.421875 246.542969 C 50.421875 270.59375 69.917969 290.089844 93.964844 290.089844 C 118.015625 290.089844 137.507812 270.59375 137.507812 246.542969 C 137.507812 222.496094 118.015625 203 93.964844 203 Z M 93.964844 203 " clip-rule="nonzero"/></clipPath><clipPath id="d65882c60c"><path d="M 0.222656 93 L 313 93 L 313 405.796875 L 0.222656 405.796875 Z M 0.222656 93 " clip-rule="nonzero"/></clipPath></defs><g clip-path="url(#ef00ddf022)"><g clip-path="url(#d94ab25131)"><path fill="#7d8a50" d="M 50.421875 203 L 137.507812 203 L 137.507812 290.089844 L 50.421875 290.089844 Z M 50.421875 203 " fill-opacity="1" fill-rule="nonzero"/></g></g><g clip-path="url(#d65882c60c)"><path fill="#e62833" d="M 292.445312 142.75 C 293.03125 141.765625 293.53125 140.742188 293.949219 139.675781 C 294.363281 138.609375 294.6875 137.515625 294.925781 136.394531 C 295.160156 135.277344 295.300781 134.144531 295.347656 133 C 295.394531 131.859375 295.347656 130.71875 295.207031 129.582031 C 295.066406 128.449219 294.832031 127.332031 294.503906 126.234375 C 294.179688 125.136719 293.765625 124.074219 293.261719 123.046875 C 292.757812 122.019531 292.175781 121.039062 291.511719 120.109375 C 290.84375 119.175781 290.109375 118.304688 289.300781 117.496094 C 288.488281 116.683594 287.621094 115.945312 286.6875 115.28125 C 285.757812 114.613281 284.777344 114.03125 283.746094 113.527344 C 282.71875 113.023438 281.65625 112.605469 280.558594 112.277344 C 279.460938 111.949219 278.34375 111.714844 277.207031 111.570312 C 276.070312 111.425781 274.929688 111.378906 273.785156 111.421875 C 272.640625 111.46875 271.503906 111.605469 270.382812 111.839844 C 269.261719 112.070312 268.167969 112.394531 267.097656 112.808594 C 266.03125 113.222656 265.003906 113.71875 264.015625 114.300781 C 262.902344 113.417969 261.765625 112.558594 260.613281 111.726562 C 259.457031 110.894531 258.285156 110.085938 257.09375 109.308594 C 255.902344 108.527344 254.691406 107.777344 253.46875 107.050781 C 252.242188 106.328125 251 105.628906 249.742188 104.960938 C 248.484375 104.292969 247.214844 103.65625 245.925781 103.042969 C 244.640625 102.433594 243.339844 101.851562 242.027344 101.300781 C 240.714844 100.75 239.390625 100.226562 238.054688 99.738281 C 236.71875 99.246094 235.371094 98.785156 234.011719 98.355469 C 232.65625 97.925781 231.289062 97.527344 229.910156 97.15625 C 228.535156 96.789062 227.152344 96.453125 225.761719 96.148438 C 224.371094 95.84375 222.972656 95.570312 221.570312 95.328125 C 220.164062 95.085938 218.757812 94.875 217.34375 94.699219 C 215.929688 94.519531 214.515625 94.375 213.09375 94.261719 C 211.675781 94.148438 210.253906 94.066406 208.828125 94.019531 C 207.40625 93.96875 205.980469 93.953125 204.558594 93.96875 C 203.132812 93.984375 201.710938 94.035156 200.289062 94.113281 C 198.867188 94.195312 197.445312 94.308594 196.03125 94.453125 C 194.613281 94.597656 193.199219 94.773438 191.792969 94.984375 C 190.382812 95.195312 188.980469 95.433594 187.582031 95.707031 C 186.183594 95.980469 184.792969 96.285156 183.410156 96.621094 C 182.023438 96.957031 180.648438 97.324219 179.28125 97.722656 C 177.914062 98.121094 176.558594 98.550781 175.210938 99.011719 C 173.863281 99.472656 172.523438 99.960938 171.199219 100.484375 C 169.875 101.003906 168.5625 101.554688 167.261719 102.136719 C 165.960938 102.71875 164.675781 103.328125 163.402344 103.964844 C 162.128906 104.605469 160.871094 105.273438 159.628906 105.96875 C 158.386719 106.664062 157.164062 107.390625 155.953125 108.140625 C 154.746094 108.894531 153.554688 109.671875 152.378906 110.476562 C 151.207031 111.285156 150.050781 112.117188 148.914062 112.972656 C 147.78125 113.832031 146.664062 114.714844 145.570312 115.625 C 144.472656 116.535156 143.398438 117.46875 142.347656 118.425781 C 141.292969 119.382812 140.261719 120.367188 139.253906 121.371094 L 28.121094 232.351562 C 27.03125 233.433594 25.96875 234.542969 24.929688 235.679688 C 23.894531 236.8125 22.886719 237.972656 21.90625 239.15625 C 20.929688 240.339844 19.980469 241.550781 19.0625 242.78125 C 18.140625 244.011719 17.253906 245.265625 16.394531 246.539062 C 15.539062 247.8125 14.710938 249.109375 13.917969 250.425781 C 13.125 251.742188 12.363281 253.074219 11.636719 254.425781 C 10.910156 255.78125 10.214844 257.152344 9.554688 258.539062 C 8.894531 259.925781 8.269531 261.328125 7.679688 262.746094 C 7.089844 264.164062 6.53125 265.59375 6.011719 267.039062 C 5.492188 268.484375 5.007812 269.941406 4.558594 271.410156 C 4.113281 272.878906 3.699219 274.359375 3.324219 275.847656 C 2.949219 277.339844 2.613281 278.835938 2.3125 280.34375 C 2.007812 281.847656 1.746094 283.359375 1.519531 284.878906 C 1.292969 286.398438 1.101562 287.921875 0.953125 289.449219 C 0.800781 290.980469 0.6875 292.511719 0.613281 294.042969 C 0.535156 295.578125 0.496094 297.113281 0.496094 298.648438 C 0.496094 300.183594 0.535156 301.71875 0.613281 303.253906 C 0.6875 304.789062 0.800781 306.320312 0.953125 307.847656 C 1.101562 309.375 1.292969 310.898438 1.519531 312.417969 C 1.746094 313.9375 2.007812 315.449219 2.3125 316.957031 C 2.613281 318.460938 2.949219 319.960938 3.324219 321.449219 C 3.699219 322.9375 4.113281 324.417969 4.558594 325.886719 C 5.007812 327.355469 5.492188 328.8125 6.011719 330.257812 C 6.53125 331.703125 7.089844 333.132812 7.679688 334.550781 C 8.269531 335.96875 8.894531 337.371094 9.554688 338.761719 C 10.214844 340.148438 10.910156 341.515625 11.636719 342.871094 C 12.363281 344.222656 13.125 345.558594 13.917969 346.875 C 14.710938 348.1875 15.539062 349.484375 16.394531 350.757812 C 17.253906 352.035156 18.140625 353.285156 19.0625 354.519531 C 19.980469 355.75 20.929688 356.957031 21.90625 358.140625 C 22.886719 359.324219 23.894531 360.484375 24.929688 361.621094 C 25.96875 362.753906 27.03125 363.863281 28.121094 364.945312 L 41.75 378.03125 C 42.832031 379.121094 43.945312 380.183594 45.082031 381.214844 C 46.21875 382.25 47.378906 383.257812 48.5625 384.234375 C 49.75 385.210938 50.960938 386.160156 52.191406 387.078125 C 53.425781 387.996094 54.679688 388.882812 55.957031 389.738281 C 57.234375 390.597656 58.53125 391.421875 59.847656 392.214844 C 61.164062 393.003906 62.5 393.765625 63.855469 394.492188 C 65.210938 395.21875 66.582031 395.910156 67.972656 396.570312 C 69.359375 397.230469 70.765625 397.855469 72.183594 398.445312 C 73.605469 399.035156 75.039062 399.589844 76.484375 400.109375 C 77.933594 400.628906 79.390625 401.113281 80.863281 401.558594 C 82.335938 402.007812 83.816406 402.417969 85.308594 402.792969 C 86.796875 403.167969 88.296875 403.503906 89.804688 403.804688 C 91.3125 404.105469 92.828125 404.371094 94.351562 404.597656 C 95.871094 404.824219 97.398438 405.011719 98.925781 405.164062 C 100.457031 405.3125 101.992188 405.425781 103.527344 405.503906 C 105.0625 405.578125 106.601562 405.617188 108.136719 405.617188 C 109.675781 405.617188 111.210938 405.578125 112.75 405.503906 C 114.285156 405.425781 115.816406 405.3125 117.347656 405.164062 C 118.878906 405.011719 120.40625 404.824219 121.925781 404.597656 C 123.445312 404.371094 124.960938 404.105469 126.46875 403.804688 C 127.976562 403.503906 129.476562 403.167969 130.96875 402.792969 C 132.460938 402.417969 133.941406 402.007812 135.414062 401.558594 C 136.882812 401.113281 138.34375 400.628906 139.789062 400.109375 C 141.238281 399.589844 142.671875 399.035156 144.089844 398.445312 C 145.511719 397.855469 146.914062 397.230469 148.304688 396.570312 C 149.691406 395.910156 151.066406 395.21875 152.417969 394.492188 C 153.773438 393.765625 155.109375 393.003906 156.429688 392.214844 C 157.746094 391.421875 159.042969 390.597656 160.320312 389.738281 C 161.59375 388.882812 162.851562 387.996094 164.082031 387.078125 C 165.316406 386.160156 166.523438 385.210938 167.710938 384.234375 C 168.898438 383.257812 170.058594 382.25 171.195312 381.214844 C 172.332031 380.183594 173.441406 379.121094 174.527344 378.03125 L 285.660156 267.046875 C 286.65625 266.039062 287.632812 265.011719 288.585938 263.957031 C 289.535156 262.90625 290.464844 261.832031 291.367188 260.738281 C 292.269531 259.644531 293.148438 258.527344 294 257.394531 C 294.851562 256.261719 295.679688 255.109375 296.480469 253.9375 C 297.28125 252.765625 298.050781 251.574219 298.796875 250.367188 C 299.546875 249.164062 300.261719 247.941406 300.953125 246.699219 C 301.644531 245.460938 302.308594 244.207031 302.941406 242.9375 C 303.574219 241.667969 304.179688 240.386719 304.753906 239.089844 C 305.328125 237.792969 305.875 236.484375 306.390625 235.164062 C 306.90625 233.84375 307.394531 232.511719 307.847656 231.167969 C 308.304688 229.824219 308.726562 228.472656 309.121094 227.109375 C 309.515625 225.746094 309.878906 224.375 310.210938 222.996094 C 310.542969 221.617188 310.84375 220.230469 311.113281 218.839844 C 311.382812 217.449219 311.617188 216.050781 311.824219 214.644531 C 312.027344 213.242188 312.203125 211.835938 312.34375 210.425781 C 312.484375 209.015625 312.59375 207.601562 312.671875 206.183594 C 312.75 204.769531 312.792969 203.351562 312.808594 201.933594 C 312.820312 200.515625 312.800781 199.097656 312.75 197.679688 C 312.699219 196.261719 312.613281 194.847656 312.5 193.433594 C 312.382812 192.019531 312.234375 190.613281 312.054688 189.203125 C 311.875 187.796875 311.664062 186.394531 311.421875 185 C 311.175781 183.601562 310.902344 182.210938 310.597656 180.828125 C 310.289062 179.441406 309.953125 178.066406 309.582031 176.695312 C 309.214844 175.324219 308.8125 173.964844 308.382812 172.613281 C 307.953125 171.261719 307.492188 169.921875 307 168.59375 C 306.507812 167.261719 305.984375 165.941406 305.433594 164.636719 C 304.882812 163.328125 304.300781 162.035156 303.691406 160.753906 C 303.078125 159.476562 302.441406 158.210938 301.773438 156.957031 C 301.105469 155.707031 300.410156 154.472656 299.683594 153.25 C 298.960938 152.03125 298.210938 150.828125 297.429688 149.640625 C 296.652344 148.457031 295.847656 147.289062 295.015625 146.140625 C 294.183594 144.988281 293.328125 143.859375 292.445312 142.75 Z M 267.292969 139.359375 C 266.816406 138.886719 266.390625 138.371094 266.015625 137.8125 C 265.640625 137.253906 265.324219 136.667969 265.066406 136.046875 C 264.808594 135.425781 264.613281 134.785156 264.480469 134.128906 C 264.347656 133.46875 264.28125 132.804688 264.28125 132.132812 C 264.28125 131.460938 264.34375 130.796875 264.476562 130.136719 C 264.605469 129.476562 264.800781 128.835938 265.054688 128.214844 C 265.3125 127.59375 265.628906 127.003906 266 126.445312 C 266.375 125.886719 266.796875 125.371094 267.273438 124.894531 C 267.75 124.421875 268.265625 123.996094 268.824219 123.621094 C 269.382812 123.25 269.976562 122.933594 270.597656 122.675781 C 271.21875 122.417969 271.859375 122.226562 272.519531 122.09375 C 273.175781 121.960938 273.84375 121.898438 274.515625 121.898438 C 275.1875 121.898438 275.855469 121.960938 276.515625 122.09375 C 277.175781 122.226562 277.816406 122.417969 278.4375 122.675781 C 279.058594 122.933594 279.648438 123.25 280.207031 123.621094 C 280.765625 123.996094 281.285156 124.421875 281.757812 124.894531 C 282.234375 125.371094 282.660156 125.886719 283.03125 126.445312 C 283.40625 127.003906 283.71875 127.59375 283.976562 128.214844 C 284.234375 128.835938 284.425781 129.476562 284.558594 130.136719 C 284.6875 130.796875 284.753906 131.460938 284.753906 132.132812 C 284.75 132.804688 284.683594 133.46875 284.554688 134.128906 C 284.421875 134.785156 284.226562 135.425781 283.96875 136.046875 C 283.707031 136.667969 283.390625 137.253906 283.015625 137.8125 C 282.640625 138.371094 282.214844 138.886719 281.738281 139.359375 C 281.261719 139.828125 280.746094 140.25 280.1875 140.617188 C 279.628906 140.984375 279.039062 141.296875 278.417969 141.550781 C 277.800781 141.804688 277.164062 141.992188 276.503906 142.125 C 275.847656 142.253906 275.1875 142.316406 274.515625 142.316406 C 273.847656 142.316406 273.183594 142.253906 272.527344 142.125 C 271.871094 141.992188 271.234375 141.804688 270.613281 141.550781 C 269.992188 141.296875 269.40625 140.984375 268.847656 140.617188 C 268.289062 140.25 267.769531 139.828125 267.292969 139.359375 Z M 267.292969 139.359375 " fill-opacity="1" fill-rule="nonzero"/></g><path fill="#ffffff" d="M 252.667969 132 C 252.476562 131.992188 252.289062 131.949219 252.113281 131.867188 C 251.9375 131.785156 251.785156 131.675781 251.652344 131.53125 C 251.519531 131.390625 251.421875 131.226562 251.355469 131.046875 C 251.289062 130.863281 251.257812 130.675781 251.265625 130.484375 C 251.484375 127.742188 252.148438 125.113281 253.253906 122.597656 C 251.265625 121.195312 249.21875 119.792969 247.054688 118.507812 C 246.894531 118.40625 246.757812 118.277344 246.648438 118.121094 C 246.535156 117.964844 246.460938 117.796875 246.414062 117.609375 C 246.371094 117.425781 246.363281 117.238281 246.394531 117.050781 C 246.425781 116.859375 246.488281 116.683594 246.585938 116.523438 C 246.683594 116.355469 246.808594 116.214844 246.964844 116.097656 C 247.117188 115.984375 247.285156 115.898438 247.472656 115.851562 C 247.660156 115.800781 247.847656 115.789062 248.039062 115.816406 C 248.230469 115.839844 248.410156 115.902344 248.574219 115.996094 C 251.144531 117.535156 253.617188 119.210938 256.003906 121.019531 L 256.941406 121.722656 L 256.414062 122.832031 C 255.140625 125.289062 254.402344 127.898438 254.191406 130.65625 C 254.175781 130.847656 254.125 131.023438 254.042969 131.195312 C 253.957031 131.363281 253.84375 131.511719 253.703125 131.636719 C 253.558594 131.761719 253.398438 131.855469 253.222656 131.917969 C 253.042969 131.980469 252.859375 132.007812 252.667969 132 Z M 265.304688 152.09375 C 265.40625 151.925781 265.46875 151.746094 265.496094 151.550781 C 265.519531 151.355469 265.503906 151.160156 265.449219 150.972656 C 265.394531 150.785156 265.304688 150.613281 265.175781 150.464844 C 265.046875 150.3125 264.894531 150.195312 264.71875 150.109375 C 262.992188 149.160156 261.433594 147.992188 260.039062 146.605469 C 258.6875 145.195312 257.535156 143.636719 256.589844 141.929688 C 256.496094 141.761719 256.375 141.613281 256.222656 141.492188 C 256.070312 141.371094 255.902344 141.28125 255.714844 141.226562 C 255.527344 141.171875 255.339844 141.15625 255.144531 141.175781 C 254.953125 141.195312 254.769531 141.253906 254.601562 141.347656 C 254.429688 141.441406 254.28125 141.5625 254.160156 141.714844 C 254.039062 141.863281 253.949219 142.03125 253.894531 142.21875 C 253.839844 142.40625 253.824219 142.59375 253.84375 142.789062 C 253.863281 142.980469 253.921875 143.164062 254.015625 143.332031 C 255.085938 145.292969 256.414062 147.066406 257.992188 148.648438 C 259.589844 150.226562 261.363281 151.570312 263.316406 152.679688 C 263.535156 152.792969 263.769531 152.851562 264.015625 152.855469 C 264.285156 152.855469 264.535156 152.785156 264.765625 152.652344 C 264.996094 152.515625 265.175781 152.328125 265.304688 152.09375 Z M 290.222656 160.15625 C 290.386719 160.058594 290.527344 159.933594 290.644531 159.777344 C 290.761719 159.625 290.84375 159.457031 290.894531 159.269531 C 290.941406 159.085938 290.953125 158.894531 290.929688 158.707031 C 290.902344 158.515625 290.84375 158.335938 290.746094 158.167969 C 289.199219 155.609375 287.523438 153.136719 285.71875 150.75 L 284.957031 149.757812 L 283.902344 150.34375 C 281.441406 151.613281 278.828125 152.351562 276.066406 152.5625 C 275.871094 152.5625 275.679688 152.601562 275.5 152.679688 C 275.320312 152.757812 275.164062 152.867188 275.03125 153.011719 C 274.898438 153.15625 274.796875 153.324219 274.734375 153.507812 C 274.671875 153.695312 274.644531 153.886719 274.664062 154.082031 C 274.675781 154.273438 274.730469 154.457031 274.816406 154.632812 C 274.90625 154.804688 275.023438 154.953125 275.171875 155.082031 C 275.320312 155.207031 275.488281 155.300781 275.671875 155.359375 C 275.859375 155.417969 276.046875 155.441406 276.242188 155.425781 C 278.972656 155.257812 281.585938 154.617188 284.078125 153.496094 C 285.601562 155.484375 286.945312 157.585938 288.234375 159.628906 C 288.351562 159.859375 288.519531 160.042969 288.742188 160.179688 C 288.960938 160.316406 289.203125 160.386719 289.460938 160.390625 C 289.734375 160.375 289.988281 160.296875 290.222656 160.15625 Z M 111.589844 395.203125 C 111.78125 395.195312 111.96875 395.152344 112.144531 395.070312 C 112.320312 394.988281 112.472656 394.875 112.605469 394.734375 C 112.738281 394.59375 112.835938 394.429688 112.902344 394.246094 C 112.972656 394.066406 113 393.878906 112.992188 393.683594 C 112.976562 393.492188 112.929688 393.3125 112.84375 393.140625 C 112.761719 392.964844 112.648438 392.816406 112.507812 392.683594 C 112.367188 392.554688 112.207031 392.457031 112.027344 392.386719 C 111.847656 392.316406 111.664062 392.28125 111.472656 392.28125 C 105.746094 392.523438 100.050781 392.191406 94.390625 391.289062 C 94.203125 391.246094 94.011719 391.242188 93.816406 391.28125 C 93.625 391.320312 93.449219 391.390625 93.289062 391.503906 C 93.128906 391.613281 92.996094 391.753906 92.890625 391.917969 C 92.789062 392.085938 92.722656 392.265625 92.695312 392.457031 C 92.664062 392.652344 92.667969 392.84375 92.710938 393.035156 C 92.757812 393.226562 92.835938 393.402344 92.953125 393.5625 C 93.066406 393.722656 93.210938 393.851562 93.378906 393.957031 C 93.546875 394.058594 93.730469 394.121094 93.925781 394.152344 C 98.496094 394.902344 103.097656 395.273438 107.726562 395.261719 Z M 128.84375 392.691406 C 134.503906 391.308594 139.964844 389.359375 145.222656 386.851562 C 145.390625 386.757812 145.539062 386.636719 145.664062 386.484375 C 145.785156 386.335938 145.878906 386.167969 145.9375 385.984375 C 146 385.800781 146.023438 385.609375 146.007812 385.417969 C 145.996094 385.222656 145.949219 385.039062 145.863281 384.863281 C 145.777344 384.695312 145.660156 384.550781 145.515625 384.425781 C 145.371094 384.304688 145.210938 384.210938 145.03125 384.152344 C 144.851562 384.09375 144.664062 384.070312 144.476562 384.082031 C 144.285156 384.09375 144.105469 384.140625 143.933594 384.222656 C 138.875 386.726562 133.613281 388.671875 128.140625 390.0625 C 127.949219 390.109375 127.777344 390.195312 127.617188 390.3125 C 127.460938 390.429688 127.332031 390.574219 127.230469 390.746094 C 127.132812 390.917969 127.070312 391.101562 127.046875 391.296875 C 127.019531 391.492188 127.035156 391.683594 127.089844 391.875 C 127.175781 392.191406 127.351562 392.453125 127.609375 392.65625 C 127.867188 392.859375 128.164062 392.96875 128.492188 392.984375 Z M 79.183594 388.660156 C 79.25 388.484375 79.28125 388.296875 79.277344 388.109375 C 79.273438 387.917969 79.234375 387.734375 79.15625 387.558594 C 79.078125 387.386719 78.972656 387.230469 78.835938 387.097656 C 78.699219 386.964844 78.542969 386.863281 78.367188 386.792969 C 73.121094 384.726562 68.148438 382.136719 63.449219 379.023438 C 63.289062 378.914062 63.109375 378.839844 62.917969 378.800781 C 62.726562 378.761719 62.535156 378.761719 62.339844 378.796875 C 62.148438 378.835938 61.96875 378.910156 61.808594 379.019531 C 61.644531 379.128906 61.511719 379.269531 61.402344 379.433594 C 61.292969 379.589844 61.21875 379.761719 61.183594 379.949219 C 61.144531 380.136719 61.144531 380.324219 61.183594 380.511719 C 61.222656 380.699219 61.296875 380.871094 61.40625 381.03125 C 61.515625 381.1875 61.648438 381.316406 61.8125 381.417969 C 66.675781 384.6875 71.84375 387.371094 77.3125 389.480469 C 77.488281 389.535156 77.664062 389.535156 77.839844 389.480469 C 78.125 389.484375 78.386719 389.414062 78.632812 389.265625 C 78.875 389.117188 79.058594 388.917969 79.183594 388.660156 Z M 159.960938 376.980469 C 162.46875 374.980469 164.867188 372.855469 167.15625 370.613281 L 172.59375 365.121094 C 172.726562 364.976562 172.828125 364.816406 172.894531 364.632812 C 172.960938 364.449219 172.988281 364.261719 172.980469 364.066406 C 172.972656 363.871094 172.929688 363.6875 172.847656 363.507812 C 172.765625 363.332031 172.652344 363.179688 172.507812 363.046875 C 172.363281 362.914062 172.199219 362.816406 172.019531 362.75 C 171.835938 362.683594 171.644531 362.652344 171.449219 362.660156 C 171.257812 362.671875 171.070312 362.714844 170.894531 362.796875 C 170.71875 362.878906 170.5625 362.992188 170.429688 363.136719 L 164.933594 368.566406 C 162.796875 370.785156 160.535156 372.871094 158.148438 374.816406 C 158.007812 374.949219 157.898438 375.105469 157.820312 375.28125 C 157.742188 375.460938 157.703125 375.644531 157.703125 375.839844 C 157.703125 376.035156 157.742188 376.21875 157.820312 376.398438 C 157.898438 376.574219 158.007812 376.730469 158.148438 376.863281 C 158.4375 377.207031 158.808594 377.382812 159.257812 377.386719 C 159.507812 377.390625 159.742188 377.332031 159.960938 377.210938 Z M 50.40625 370.320312 C 50.546875 370.1875 50.65625 370.03125 50.734375 369.855469 C 50.8125 369.675781 50.851562 369.492188 50.851562 369.296875 C 50.851562 369.105469 50.8125 368.917969 50.734375 368.742188 C 50.65625 368.5625 50.546875 368.40625 50.40625 368.277344 L 38.242188 356.125 C 38.113281 355.957031 37.957031 355.820312 37.769531 355.71875 C 37.585938 355.617188 37.386719 355.558594 37.175781 355.546875 C 36.964844 355.53125 36.757812 355.558594 36.558594 355.632812 C 36.359375 355.707031 36.1875 355.820312 36.035156 355.96875 C 35.886719 356.117188 35.773438 356.292969 35.699219 356.492188 C 35.625 356.691406 35.597656 356.894531 35.613281 357.105469 C 35.628906 357.316406 35.683594 357.515625 35.785156 357.699219 C 35.886719 357.886719 36.023438 358.042969 36.191406 358.171875 L 48.359375 370.320312 C 48.644531 370.625 48.996094 370.78125 49.414062 370.785156 C 49.808594 370.765625 50.136719 370.609375 50.40625 370.320312 Z M 184.9375 353.207031 L 197.101562 341.054688 C 197.320312 340.765625 197.417969 340.4375 197.390625 340.074219 C 197.367188 339.714844 197.222656 339.402344 196.96875 339.148438 C 196.710938 338.890625 196.398438 338.75 196.035156 338.722656 C 195.675781 338.695312 195.347656 338.792969 195.054688 339.011719 L 182.714844 351.453125 C 182.574219 351.585938 182.464844 351.742188 182.386719 351.917969 C 182.308594 352.097656 182.269531 352.28125 182.269531 352.476562 C 182.269531 352.667969 182.308594 352.855469 182.386719 353.03125 C 182.464844 353.210938 182.574219 353.363281 182.714844 353.496094 C 182.984375 353.777344 183.316406 353.914062 183.707031 353.90625 C 184.175781 353.847656 184.527344 353.617188 184.761719 353.207031 Z M 27.011719 345.203125 C 27.175781 345.09375 27.3125 344.960938 27.421875 344.796875 C 27.53125 344.636719 27.605469 344.457031 27.644531 344.265625 C 27.683594 344.074219 27.683594 343.882812 27.644531 343.691406 C 27.605469 343.496094 27.53125 343.320312 27.417969 343.160156 C 24.3125 338.40625 21.738281 333.382812 19.699219 328.089844 C 19.621094 327.910156 19.511719 327.75 19.375 327.613281 C 19.234375 327.476562 19.078125 327.371094 18.898438 327.292969 C 18.71875 327.21875 18.53125 327.179688 18.335938 327.175781 C 18.140625 327.167969 17.953125 327.203125 17.769531 327.269531 C 17.585938 327.335938 17.425781 327.433594 17.285156 327.566406 C 17.140625 327.699219 17.03125 327.851562 16.957031 328.027344 C 16.878906 328.207031 16.839844 328.390625 16.835938 328.582031 C 16.835938 328.777344 16.875 328.960938 16.949219 329.140625 C 19.101562 334.589844 21.8125 339.75 25.078125 344.617188 C 25.347656 345.054688 25.738281 345.269531 26.25 345.261719 C 26.527344 345.300781 26.800781 345.28125 27.070312 345.203125 Z M 209.035156 328.90625 L 221.203125 316.757812 C 221.34375 316.625 221.453125 316.46875 221.527344 316.292969 C 221.605469 316.113281 221.644531 315.929688 221.644531 315.734375 C 221.644531 315.539062 221.605469 315.355469 221.527344 315.175781 C 221.453125 315 221.34375 314.84375 221.203125 314.710938 C 221.0625 314.570312 220.902344 314.460938 220.71875 314.382812 C 220.539062 314.304688 220.347656 314.265625 220.148438 314.265625 C 219.949219 314.265625 219.757812 314.304688 219.578125 314.382812 C 219.394531 314.460938 219.234375 314.570312 219.097656 314.710938 L 206.988281 326.863281 C 206.847656 326.996094 206.738281 327.148438 206.660156 327.328125 C 206.582031 327.503906 206.546875 327.691406 206.546875 327.882812 C 206.546875 328.078125 206.582031 328.261719 206.660156 328.441406 C 206.738281 328.617188 206.847656 328.773438 206.988281 328.90625 C 207.25 329.210938 207.582031 329.367188 207.984375 329.375 C 208.421875 329.386719 208.792969 329.230469 209.09375 328.90625 Z M 13.964844 313.71875 C 14.152344 313.675781 14.324219 313.601562 14.484375 313.496094 C 14.640625 313.390625 14.773438 313.257812 14.882812 313.101562 C 14.992188 312.941406 15.066406 312.773438 15.109375 312.585938 C 15.15625 312.402344 15.164062 312.214844 15.136719 312.023438 C 14.359375 307.542969 13.988281 303.023438 14.023438 298.472656 C 14.023438 297.363281 14.023438 296.3125 14.023438 295.203125 C 14.023438 295 13.988281 294.808594 13.910156 294.621094 C 13.832031 294.433594 13.722656 294.269531 13.578125 294.128906 C 13.4375 293.988281 13.273438 293.875 13.085938 293.800781 C 12.898438 293.722656 12.707031 293.683594 12.503906 293.683594 C 12.304688 293.65625 12.113281 293.675781 11.921875 293.734375 C 11.730469 293.796875 11.5625 293.894531 11.414062 294.027344 C 11.265625 294.164062 11.15625 294.324219 11.082031 294.507812 C 11.003906 294.695312 10.972656 294.886719 10.984375 295.085938 C 10.984375 296.195312 10.984375 297.363281 10.984375 298.472656 C 10.933594 303.183594 11.324219 307.855469 12.152344 312.492188 C 12.210938 312.839844 12.371094 313.128906 12.632812 313.359375 C 12.898438 313.589844 13.207031 313.710938 13.558594 313.71875 Z M 233.425781 304.722656 L 245.59375 292.632812 C 245.722656 292.488281 245.820312 292.324219 245.890625 292.144531 C 245.960938 291.960938 245.996094 291.773438 245.996094 291.582031 C 245.996094 291.386719 245.960938 291.199219 245.890625 291.019531 C 245.820312 290.835938 245.722656 290.675781 245.59375 290.53125 C 245.453125 290.386719 245.292969 290.277344 245.113281 290.199219 C 244.929688 290.121094 244.738281 290.082031 244.539062 290.082031 C 244.339844 290.082031 244.148438 290.121094 243.96875 290.199219 C 243.785156 290.277344 243.625 290.386719 243.488281 290.53125 L 231.320312 302.679688 C 231.191406 302.820312 231.09375 302.976562 231.027344 303.152344 C 230.957031 303.328125 230.925781 303.511719 230.925781 303.703125 C 230.925781 303.890625 230.957031 304.074219 231.027344 304.25 C 231.09375 304.425781 231.191406 304.582031 231.320312 304.722656 C 231.453125 304.875 231.613281 304.992188 231.796875 305.074219 C 231.980469 305.15625 232.171875 305.199219 232.375 305.199219 C 232.574219 305.199219 232.765625 305.15625 232.949219 305.074219 C 233.132812 304.992188 233.292969 304.875 233.425781 304.722656 Z M 257.699219 280.484375 L 269.867188 268.214844 C 270.007812 268.078125 270.121094 267.917969 270.199219 267.738281 C 270.273438 267.554688 270.3125 267.363281 270.3125 267.164062 C 270.3125 266.96875 270.273438 266.777344 270.199219 266.59375 C 270.121094 266.410156 270.007812 266.25 269.867188 266.113281 C 269.726562 265.988281 269.566406 265.890625 269.390625 265.820312 C 269.214844 265.753906 269.03125 265.71875 268.84375 265.71875 C 268.652344 265.71875 268.46875 265.753906 268.292969 265.820312 C 268.117188 265.890625 267.960938 265.988281 267.820312 266.113281 L 255.652344 278.261719 C 255.511719 278.402344 255.398438 278.5625 255.320312 278.742188 C 255.246094 278.925781 255.207031 279.117188 255.207031 279.316406 C 255.207031 279.511719 255.246094 279.703125 255.320312 279.886719 C 255.398438 280.070312 255.511719 280.230469 255.652344 280.367188 C 255.945312 280.65625 256.292969 280.792969 256.707031 280.773438 C 257.101562 280.789062 257.429688 280.65625 257.699219 280.367188 Z M 16.480469 278.554688 C 17.898438 273.082031 19.847656 267.804688 22.332031 262.726562 C 22.460938 262.554688 22.546875 262.359375 22.59375 262.148438 C 22.636719 261.9375 22.632812 261.726562 22.585938 261.515625 C 22.535156 261.304688 22.441406 261.113281 22.308594 260.945312 C 22.171875 260.773438 22.007812 260.640625 21.816406 260.542969 C 21.621094 260.445312 21.414062 260.394531 21.199219 260.390625 C 20.980469 260.382812 20.773438 260.425781 20.574219 260.511719 C 20.378906 260.597656 20.207031 260.722656 20.0625 260.886719 C 19.917969 261.046875 19.816406 261.234375 19.757812 261.441406 C 17.253906 266.714844 15.304688 272.1875 13.90625 277.855469 C 13.863281 278.039062 13.855469 278.226562 13.886719 278.417969 C 13.914062 278.605469 13.976562 278.78125 14.078125 278.945312 C 14.175781 279.109375 14.300781 279.25 14.453125 279.363281 C 14.605469 279.476562 14.777344 279.558594 14.960938 279.605469 L 15.371094 279.605469 C 15.636719 279.542969 15.871094 279.417969 16.066406 279.230469 C 16.265625 279.042969 16.40625 278.816406 16.480469 278.554688 Z M 281.972656 255.832031 C 285.847656 251.449219 289.199219 246.695312 292.035156 241.582031 C 292.128906 241.410156 292.183594 241.230469 292.207031 241.035156 C 292.226562 240.84375 292.210938 240.652344 292.15625 240.464844 C 292.101562 240.28125 292.011719 240.113281 291.890625 239.960938 C 291.765625 239.808594 291.621094 239.6875 291.449219 239.59375 C 291.28125 239.5 291.097656 239.445312 290.902344 239.421875 C 290.710938 239.402344 290.519531 239.421875 290.335938 239.476562 C 290.148438 239.53125 289.980469 239.617188 289.828125 239.742188 C 289.675781 239.863281 289.554688 240.007812 289.460938 240.179688 C 286.730469 245.128906 283.492188 249.722656 279.75 253.964844 C 279.570312 254.179688 279.460938 254.429688 279.425781 254.710938 C 279.386719 254.988281 279.429688 255.257812 279.546875 255.511719 C 279.667969 255.769531 279.84375 255.972656 280.082031 256.125 C 280.320312 256.277344 280.582031 256.355469 280.863281 256.359375 C 281.316406 256.355469 281.683594 256.179688 281.972656 255.832031 Z M 31.28125 248.53125 C 33.246094 246.050781 35.351562 243.695312 37.597656 241.464844 L 42.917969 236.148438 C 43.0625 236.011719 43.171875 235.851562 43.25 235.667969 C 43.328125 235.484375 43.367188 235.296875 43.367188 235.097656 C 43.367188 234.898438 43.328125 234.707031 43.25 234.527344 C 43.171875 234.34375 43.0625 234.183594 42.917969 234.046875 C 42.78125 233.917969 42.621094 233.820312 42.445312 233.753906 C 42.269531 233.683594 42.085938 233.652344 41.894531 233.652344 C 41.707031 233.652344 41.523438 233.683594 41.347656 233.753906 C 41.171875 233.820312 41.011719 233.917969 40.871094 234.046875 L 35.550781 239.363281 C 33.210938 241.675781 31.027344 244.128906 29 246.722656 C 28.859375 246.855469 28.75 247.007812 28.671875 247.1875 C 28.59375 247.363281 28.554688 247.550781 28.554688 247.742188 C 28.554688 247.9375 28.59375 248.121094 28.671875 248.300781 C 28.75 248.476562 28.859375 248.632812 29 248.765625 C 29.3125 248.875 29.621094 248.875 29.933594 248.765625 C 30.425781 248.925781 30.871094 248.847656 31.28125 248.53125 Z M 299.113281 225.578125 C 300.828125 219.96875 301.960938 214.242188 302.503906 208.402344 C 302.511719 208.210938 302.484375 208.023438 302.425781 207.84375 C 302.363281 207.660156 302.269531 207.496094 302.144531 207.351562 C 302.019531 207.203125 301.871094 207.085938 301.699219 206.996094 C 301.53125 206.90625 301.351562 206.847656 301.160156 206.828125 C 300.96875 206.816406 300.78125 206.84375 300.597656 206.90625 C 300.414062 206.96875 300.25 207.0625 300.105469 207.1875 C 299.957031 207.3125 299.839844 207.460938 299.75 207.628906 C 299.660156 207.796875 299.601562 207.980469 299.578125 208.167969 C 299.074219 213.796875 297.984375 219.304688 296.304688 224.699219 C 296.25 224.886719 296.234375 225.074219 296.253906 225.269531 C 296.277344 225.460938 296.332031 225.640625 296.425781 225.8125 C 296.519531 225.980469 296.640625 226.125 296.792969 226.246094 C 296.945312 226.367188 297.113281 226.457031 297.296875 226.511719 L 297.707031 226.511719 C 298.019531 226.519531 298.300781 226.4375 298.558594 226.265625 C 298.816406 226.09375 299 225.863281 299.113281 225.578125 Z M 55.085938 224 L 67.253906 211.847656 C 67.394531 211.710938 67.503906 211.550781 67.582031 211.371094 C 67.660156 211.1875 67.699219 210.996094 67.699219 210.796875 C 67.699219 210.601562 67.660156 210.410156 67.582031 210.226562 C 67.503906 210.042969 67.394531 209.882812 67.253906 209.746094 C 67.109375 209.617188 66.945312 209.519531 66.761719 209.449219 C 66.582031 209.378906 66.394531 209.34375 66.199219 209.34375 C 66.003906 209.34375 65.816406 209.378906 65.636719 209.449219 C 65.453125 209.519531 65.292969 209.617188 65.148438 209.746094 L 53.039062 221.894531 C 52.894531 222.035156 52.785156 222.195312 52.707031 222.375 C 52.628906 222.558594 52.589844 222.75 52.589844 222.949219 C 52.589844 223.144531 52.628906 223.335938 52.707031 223.519531 C 52.785156 223.703125 52.894531 223.863281 53.039062 224 C 53.308594 224.289062 53.640625 224.425781 54.03125 224.40625 C 54.445312 224.425781 54.796875 224.289062 55.085938 224 Z M 79.417969 199.582031 L 91.585938 187.433594 C 91.710938 187.292969 91.808594 187.136719 91.878906 186.960938 C 91.945312 186.78125 91.980469 186.601562 91.980469 186.410156 C 91.980469 186.222656 91.945312 186.039062 91.878906 185.863281 C 91.808594 185.6875 91.710938 185.527344 91.585938 185.390625 C 91.445312 185.246094 91.285156 185.136719 91.105469 185.058594 C 90.921875 184.980469 90.730469 184.941406 90.53125 184.941406 C 90.332031 184.941406 90.140625 184.980469 89.960938 185.058594 C 89.777344 185.136719 89.617188 185.246094 89.480469 185.390625 L 77.3125 197.539062 C 77.183594 197.679688 77.085938 197.835938 77.019531 198.011719 C 76.949219 198.1875 76.917969 198.371094 76.917969 198.5625 C 76.917969 198.75 76.949219 198.933594 77.019531 199.109375 C 77.085938 199.285156 77.183594 199.441406 77.3125 199.582031 C 77.457031 199.710938 77.621094 199.8125 77.800781 199.882812 C 77.984375 199.949219 78.171875 199.984375 78.367188 199.984375 C 78.558594 199.984375 78.746094 199.949219 78.929688 199.882812 C 79.109375 199.8125 79.273438 199.710938 79.417969 199.582031 Z M 300.691406 192.515625 C 300.886719 192.492188 301.070312 192.433594 301.238281 192.339844 C 301.410156 192.246094 301.554688 192.121094 301.675781 191.964844 C 301.796875 191.8125 301.886719 191.640625 301.9375 191.453125 C 301.988281 191.265625 302.003906 191.074219 301.976562 190.878906 C 301.28125 185.082031 299.992188 179.414062 298.117188 173.882812 C 298.054688 173.695312 297.960938 173.527344 297.832031 173.382812 C 297.703125 173.234375 297.550781 173.117188 297.375 173.027344 C 297.199219 172.941406 297.015625 172.890625 296.820312 172.875 C 296.625 172.863281 296.433594 172.886719 296.246094 172.949219 C 296.058594 173.007812 295.894531 173.105469 295.746094 173.234375 C 295.597656 173.363281 295.476562 173.511719 295.390625 173.6875 C 295.300781 173.863281 295.25 174.050781 295.238281 174.246094 C 295.222656 174.441406 295.246094 174.628906 295.308594 174.816406 C 297.175781 180.191406 298.441406 185.699219 299.113281 191.347656 C 299.125 191.523438 299.171875 191.691406 299.25 191.847656 C 299.328125 192.007812 299.433594 192.144531 299.5625 192.265625 C 299.691406 192.382812 299.839844 192.472656 300.003906 192.539062 C 300.167969 192.601562 300.339844 192.632812 300.515625 192.632812 Z M 103.75 174.992188 L 115.859375 162.84375 C 116.078125 162.550781 116.171875 162.226562 116.148438 161.863281 C 116.121094 161.5 115.980469 161.191406 115.722656 160.933594 C 115.464844 160.675781 115.15625 160.535156 114.792969 160.507812 C 114.429688 160.484375 114.101562 160.578125 113.8125 160.796875 L 101.644531 172.949219 C 101.503906 173.078125 101.394531 173.234375 101.316406 173.414062 C 101.242188 173.589844 101.203125 173.777344 101.203125 173.96875 C 101.203125 174.164062 101.242188 174.347656 101.316406 174.527344 C 101.394531 174.703125 101.503906 174.859375 101.644531 174.992188 C 101.929688 175.296875 102.28125 175.453125 102.699219 175.460938 C 103.054688 175.5625 103.40625 175.542969 103.75 175.402344 Z M 128.023438 150.691406 L 140.191406 138.601562 C 140.332031 138.464844 140.445312 138.304688 140.523438 138.121094 C 140.601562 137.9375 140.636719 137.75 140.636719 137.550781 C 140.636719 137.351562 140.601562 137.160156 140.523438 136.980469 C 140.445312 136.796875 140.332031 136.636719 140.191406 136.5 C 140.058594 136.359375 139.902344 136.25 139.726562 136.171875 C 139.546875 136.09375 139.359375 136.054688 139.167969 136.054688 C 138.972656 136.054688 138.789062 136.09375 138.609375 136.171875 C 138.433594 136.25 138.277344 136.359375 138.144531 136.5 L 125.976562 149.058594 C 125.835938 149.191406 125.726562 149.34375 125.648438 149.523438 C 125.574219 149.699219 125.535156 149.886719 125.535156 150.078125 C 125.535156 150.273438 125.574219 150.457031 125.648438 150.636719 C 125.726562 150.8125 125.835938 150.96875 125.976562 151.101562 C 126.261719 151.40625 126.613281 151.5625 127.03125 151.570312 C 127.425781 151.546875 127.757812 151.390625 128.023438 151.101562 Z M 152.414062 126.628906 C 156.664062 122.90625 161.246094 119.65625 166.160156 116.871094 C 166.363281 116.800781 166.542969 116.691406 166.699219 116.539062 C 166.855469 116.390625 166.96875 116.214844 167.046875 116.011719 C 167.125 115.8125 167.15625 115.601562 167.140625 115.386719 C 167.125 115.171875 167.0625 114.96875 166.957031 114.78125 C 166.851562 114.59375 166.710938 114.4375 166.535156 114.308594 C 166.363281 114.183594 166.167969 114.101562 165.957031 114.058594 C 165.742188 114.019531 165.53125 114.023438 165.324219 114.078125 C 165.113281 114.128906 164.925781 114.226562 164.757812 114.359375 C 159.632812 117.191406 154.878906 120.542969 150.484375 124.40625 C 150.351562 124.550781 150.246094 124.710938 150.171875 124.890625 C 150.097656 125.074219 150.0625 125.261719 150.0625 125.460938 C 150.0625 125.65625 150.097656 125.84375 150.171875 126.027344 C 150.246094 126.207031 150.351562 126.367188 150.484375 126.511719 C 150.773438 126.804688 151.125 126.960938 151.539062 126.976562 C 151.824219 127.082031 152.117188 127.101562 152.414062 127.035156 Z M 233.367188 110.097656 C 233.433594 109.910156 233.457031 109.71875 233.445312 109.523438 C 233.433594 109.328125 233.382812 109.140625 233.292969 108.964844 C 233.207031 108.789062 233.085938 108.636719 232.9375 108.507812 C 232.789062 108.382812 232.621094 108.289062 232.433594 108.226562 C 226.890625 106.355469 221.21875 105.070312 215.410156 104.371094 C 215.214844 104.347656 215.023438 104.363281 214.835938 104.414062 C 214.648438 104.464844 214.476562 104.550781 214.324219 104.671875 C 214.167969 104.792969 214.042969 104.9375 213.949219 105.109375 C 213.855469 105.28125 213.796875 105.464844 213.773438 105.65625 C 213.757812 105.847656 213.777344 106.03125 213.832031 106.214844 C 213.886719 106.394531 213.976562 106.558594 214.097656 106.707031 C 214.214844 106.855469 214.359375 106.972656 214.527344 107.066406 C 214.691406 107.15625 214.871094 107.210938 215.058594 107.234375 C 220.667969 107.921875 226.144531 109.167969 231.496094 110.972656 L 231.964844 110.972656 C 232.222656 111.027344 232.476562 111.011719 232.730469 110.929688 C 232.980469 110.847656 233.195312 110.703125 233.367188 110.503906 Z M 181.660156 110.097656 C 187.070312 108.449219 192.585938 107.359375 198.214844 106.824219 C 198.507812 106.867188 198.785156 106.824219 199.050781 106.695312 C 199.316406 106.570312 199.527344 106.378906 199.675781 106.125 C 199.640625 105.933594 199.574219 105.753906 199.476562 105.589844 C 199.378906 105.421875 199.253906 105.277344 199.105469 105.152344 C 198.953125 105.03125 198.789062 104.9375 198.605469 104.871094 C 198.421875 104.808594 198.234375 104.777344 198.039062 104.78125 C 192.210938 105.324219 186.496094 106.453125 180.902344 108.167969 C 180.730469 108.21875 180.570312 108.296875 180.429688 108.402344 C 180.285156 108.511719 180.164062 108.640625 180.070312 108.792969 C 179.972656 108.941406 179.910156 109.105469 179.871094 109.28125 C 179.835938 109.457031 179.832031 109.632812 179.863281 109.808594 C 179.890625 109.984375 179.949219 110.148438 180.039062 110.304688 C 180.128906 110.457031 180.246094 110.59375 180.382812 110.707031 C 180.523438 110.816406 180.675781 110.902344 180.847656 110.957031 C 181.015625 111.015625 181.191406 111.039062 181.367188 111.03125 Z M 181.660156 110.097656 " fill-opacity="1" fill-rule="nonzero"/><path fill="#3a4a5b" d="M 337.949219 2.328125 C 336.179688 1.699219 334.355469 1.300781 332.484375 1.125 C 330.613281 0.949219 328.75 1.003906 326.894531 1.289062 C 325.035156 1.574219 323.242188 2.082031 321.507812 2.808594 C 319.777344 3.539062 318.160156 4.46875 316.660156 5.597656 C 315.105469 6.792969 313.71875 8.15625 312.507812 9.695312 C 311.296875 11.238281 310.296875 12.902344 309.503906 14.695312 C 308.710938 16.484375 308.152344 18.347656 307.832031 20.277344 C 307.507812 22.207031 307.429688 24.148438 307.59375 26.101562 C 307.992188 30.71875 307.949219 35.332031 307.476562 39.941406 C 307 44.550781 306.097656 49.078125 304.765625 53.515625 C 303.433594 57.957031 301.695312 62.230469 299.554688 66.34375 C 297.414062 70.457031 294.90625 74.332031 292.035156 77.96875 C 284.96875 88.269531 279.800781 99.445312 276.535156 111.5 C 278.5625 111.609375 280.511719 112.054688 282.382812 112.84375 C 285.429688 101.609375 290.246094 91.191406 296.832031 81.59375 C 299.886719 77.648438 302.558594 73.457031 304.84375 69.019531 C 307.128906 64.585938 308.988281 59.976562 310.421875 55.199219 C 311.859375 50.421875 312.84375 45.550781 313.382812 40.59375 C 313.917969 35.632812 313.996094 30.667969 313.617188 25.691406 C 313.476562 24.21875 313.523438 22.75 313.765625 21.289062 C 314.003906 19.828125 314.425781 18.425781 315.03125 17.074219 C 315.636719 15.722656 316.402344 14.46875 317.332031 13.316406 C 318.265625 12.164062 319.324219 11.148438 320.519531 10.273438 C 321.613281 9.4375 322.789062 8.75 324.054688 8.207031 C 325.316406 7.664062 326.625 7.28125 327.984375 7.0625 C 329.339844 6.84375 330.703125 6.792969 332.074219 6.910156 C 333.445312 7.03125 334.777344 7.3125 336.078125 7.761719 C 348.304688 12.667969 353.507812 24.347656 350.992188 41.871094 C 347.367188 66.695312 319.117188 97.011719 298.644531 116.054688 L 294.726562 119.617188 C 294.539062 119.738281 294.363281 119.875 294.199219 120.027344 L 292.503906 121.605469 L 290.222656 123.589844 L 286.886719 126.511719 L 284.136719 128.789062 L 282.265625 130.308594 C 282.058594 130.535156 281.824219 130.726562 281.566406 130.890625 C 281.566406 130.890625 280.980469 126.917969 280.628906 124.117188 L 279.515625 123.648438 C 278.796875 123.191406 278.015625 122.878906 277.179688 122.714844 C 276.847656 122.660156 276.515625 122.660156 276.183594 122.714844 C 275.578125 122.65625 274.972656 122.65625 274.371094 122.714844 C 274.78125 125.34375 275.773438 132.175781 275.832031 132.644531 C 275.917969 133.160156 276.074219 133.660156 276.292969 134.136719 C 276.515625 134.613281 276.796875 135.050781 277.136719 135.453125 C 277.476562 135.851562 277.863281 136.199219 278.296875 136.496094 C 278.730469 136.792969 279.195312 137.027344 279.691406 137.199219 C 280.351562 137.464844 281.03125 137.59375 281.738281 137.59375 C 282.449219 137.59375 283.128906 137.464844 283.789062 137.199219 C 284.378906 137.054688 284.90625 136.785156 285.367188 136.382812 C 286.652344 135.214844 288.292969 133.8125 290.222656 132.234375 L 292.035156 130.714844 C 292.851562 129.957031 293.730469 129.140625 294.609375 128.4375 C 295.484375 127.738281 296.1875 127.035156 297.066406 126.21875 C 297.941406 125.402344 297.707031 125.691406 298 125.34375 L 302.386719 121.253906 C 305.3125 118.566406 308.238281 115.414062 311.570312 112.433594 C 331.28125 91.988281 353.449219 65.238281 356.785156 42.691406 C 360.703125 15.410156 346.664062 5.65625 337.949219 2.328125 Z M 337.949219 2.328125 " fill-opacity="1" fill-rule="nonzero"/><path fill="#ffffff" d="M 91.117188 346.253906 L 96.964844 340.414062 C 98.964844 338.226562 101.34375 336.589844 104.101562 335.507812 C 105.363281 335.089844 106.660156 334.90625 107.988281 334.957031 C 109.316406 335.007812 110.59375 335.289062 111.824219 335.796875 C 115.421875 337.292969 118.542969 339.476562 121.179688 342.339844 C 123.367188 344.453125 125.183594 346.847656 126.621094 349.523438 C 127.789062 351.558594 128.511719 353.738281 128.785156 356.066406 C 128.960938 357.898438 128.628906 359.628906 127.789062 361.265625 C 126.796875 363.078125 125.550781 364.695312 124.046875 366.113281 L 117.789062 372.597656 Z M 100.941406 345.613281 L 118.492188 363.136719 L 119.367188 362.199219 C 120.511719 361.253906 121.191406 360.046875 121.414062 358.578125 C 121.523438 357.042969 121.175781 355.621094 120.363281 354.316406 C 118.972656 352.039062 117.3125 349.972656 115.390625 348.125 C 113.679688 346.3125 111.730469 344.8125 109.542969 343.625 C 108.246094 342.910156 106.859375 342.640625 105.386719 342.808594 C 104.050781 343.175781 102.917969 343.875 101.996094 344.910156 Z M 111.414062 326.101562 L 116.675781 320.84375 L 143.058594 347.246094 L 137.792969 352.503906 Z M 141.652344 307.351562 L 139.136719 313.542969 C 136.332031 312.023438 134.109375 312.023438 132.46875 313.542969 C 132.132812 313.863281 131.875 314.238281 131.691406 314.664062 C 131.507812 315.089844 131.417969 315.535156 131.417969 315.996094 C 131.417969 316.460938 131.507812 316.90625 131.691406 317.332031 C 131.875 317.757812 132.132812 318.128906 132.46875 318.449219 C 132.792969 318.8125 133.183594 319.082031 133.636719 319.253906 C 134.089844 319.429688 134.558594 319.492188 135.042969 319.445312 C 136.824219 319.125 138.539062 318.597656 140.191406 317.867188 C 141.957031 317.066406 143.792969 316.460938 145.6875 316.054688 C 147.28125 315.816406 148.839844 315.953125 150.367188 316.464844 C 152.105469 317.046875 153.605469 318 154.871094 319.328125 C 155.40625 319.855469 155.882812 320.433594 156.308594 321.050781 C 156.734375 321.671875 157.097656 322.328125 157.398438 323.015625 C 157.699219 323.703125 157.933594 324.414062 158.101562 325.148438 C 158.269531 325.882812 158.367188 326.625 158.394531 327.375 C 158.421875 328.125 158.378906 328.871094 158.265625 329.617188 C 158.152344 330.359375 157.96875 331.085938 157.71875 331.792969 C 157.46875 332.503906 157.15625 333.179688 156.777344 333.832031 C 156.398438 334.480469 155.964844 335.089844 155.46875 335.65625 C 154.976562 336.226562 154.433594 336.742188 153.84375 337.207031 C 153.253906 337.671875 152.625 338.082031 151.957031 338.429688 C 151.289062 338.777344 150.597656 339.058594 149.875 339.273438 C 149.15625 339.492188 148.421875 339.640625 147.671875 339.71875 C 146.925781 339.796875 146.175781 339.808594 145.425781 339.746094 C 144.675781 339.683594 143.9375 339.550781 143.210938 339.351562 C 142.484375 339.152344 141.785156 338.882812 141.109375 338.550781 C 140.4375 338.21875 139.796875 337.828125 139.195312 337.375 L 142.355469 331.535156 C 145.570312 333.636719 148.203125 333.636719 150.191406 331.535156 C 151.085938 330.742188 151.574219 329.746094 151.65625 328.554688 C 151.6875 328 151.59375 327.464844 151.378906 326.953125 C 151.164062 326.441406 150.84375 326 150.425781 325.636719 C 149.792969 324.960938 149.011719 324.589844 148.085938 324.523438 C 146.554688 324.539062 145.109375 324.910156 143.757812 325.636719 C 141.867188 326.507812 139.917969 327.230469 137.910156 327.796875 C 136.332031 328.207031 134.75 328.207031 133.171875 327.796875 C 131.390625 327.230469 129.851562 326.277344 128.550781 324.933594 C 127.441406 323.910156 126.5625 322.71875 125.914062 321.351562 C 125.265625 319.988281 124.898438 318.554688 124.808594 317.046875 C 124.75 315.582031 125 314.167969 125.5625 312.8125 C 126.125 311.453125 126.945312 310.277344 128.023438 309.28125 C 128.429688 308.796875 128.875 308.359375 129.359375 307.957031 C 129.84375 307.554688 130.359375 307.203125 130.910156 306.894531 C 131.457031 306.585938 132.03125 306.332031 132.625 306.128906 C 133.222656 305.925781 133.828125 305.777344 134.453125 305.683594 C 135.074219 305.589844 135.699219 305.554688 136.328125 305.574219 C 136.957031 305.59375 137.578125 305.667969 138.195312 305.800781 C 138.808594 305.933594 139.40625 306.121094 139.988281 306.363281 C 140.570312 306.601562 141.125 306.894531 141.652344 307.234375 Z M 168.148438 302.972656 L 173.355469 298.472656 C 174.589844 299.773438 175.589844 301.230469 176.359375 302.847656 C 177.128906 304.464844 177.628906 306.160156 177.859375 307.9375 C 178.011719 309.515625 177.808594 311.046875 177.257812 312.535156 C 176.703125 314.019531 175.851562 315.3125 174.699219 316.40625 C 174.050781 317.105469 173.320312 317.710938 172.511719 318.21875 C 171.703125 318.722656 170.839844 319.117188 169.921875 319.394531 C 169.007812 319.671875 168.074219 319.824219 167.117188 319.851562 C 166.160156 319.878906 165.21875 319.78125 164.289062 319.558594 C 161.925781 318.875 159.703125 317.882812 157.617188 316.585938 C 155.53125 315.285156 153.660156 313.726562 152.007812 311.910156 C 150.164062 310.257812 148.585938 308.386719 147.273438 306.292969 C 145.957031 304.195312 144.964844 301.960938 144.285156 299.582031 C 144.070312 298.644531 143.980469 297.695312 144.019531 296.734375 C 144.054688 295.773438 144.21875 294.832031 144.507812 293.914062 C 144.792969 292.996094 145.199219 292.128906 145.714844 291.316406 C 146.234375 290.507812 146.847656 289.777344 147.5625 289.128906 C 152.53125 284.164062 158.675781 284.804688 165.925781 291.171875 L 161.480469 296.371094 C 157.445312 292.574219 154.40625 291.757812 152.296875 293.859375 C 152.027344 294.15625 151.800781 294.488281 151.621094 294.851562 C 151.445312 295.214844 151.324219 295.597656 151.253906 295.996094 C 151.1875 296.394531 151.179688 296.796875 151.226562 297.195312 C 151.273438 297.597656 151.378906 297.984375 151.539062 298.355469 C 153.09375 301.574219 155.21875 304.359375 157.914062 306.710938 C 160.070312 309.144531 162.605469 311.09375 165.519531 312.550781 C 165.894531 312.714844 166.285156 312.820312 166.691406 312.863281 C 167.097656 312.910156 167.503906 312.890625 167.90625 312.8125 C 168.308594 312.734375 168.691406 312.597656 169.050781 312.40625 C 169.410156 312.210938 169.734375 311.96875 170.023438 311.675781 C 171.953125 309.628906 171.308594 306.769531 168.148438 302.855469 Z M 189.089844 274.875 C 198.175781 283.949219 199.8125 291.386719 194.003906 297.1875 C 193.386719 297.871094 192.6875 298.457031 191.910156 298.949219 C 191.132812 299.441406 190.304688 299.820312 189.421875 300.085938 C 188.542969 300.355469 187.640625 300.5 186.722656 300.523438 C 185.800781 300.546875 184.894531 300.449219 184 300.226562 C 181.613281 299.503906 179.371094 298.46875 177.273438 297.117188 C 175.175781 295.765625 173.304688 294.15625 171.660156 292.28125 C 162.574219 283.207031 160.9375 275.789062 166.746094 270.027344 C 167.363281 269.355469 168.058594 268.773438 168.832031 268.28125 C 169.601562 267.792969 170.425781 267.410156 171.300781 267.140625 C 172.171875 266.867188 173.066406 266.714844 173.980469 266.679688 C 174.894531 266.644531 175.796875 266.726562 176.691406 266.929688 C 179.085938 267.625 181.335938 268.636719 183.445312 269.96875 C 185.550781 271.300781 187.433594 272.894531 189.089844 274.757812 Z M 183.53125 280.714844 C 181.261719 278.175781 178.648438 276.054688 175.695312 274.351562 C 175.351562 274.183594 174.992188 274.070312 174.617188 274.015625 C 174.242188 273.957031 173.867188 273.957031 173.488281 274.015625 C 173.113281 274.070312 172.753906 274.183594 172.410156 274.351562 C 172.070312 274.515625 171.761719 274.730469 171.484375 274.992188 C 171.214844 275.265625 170.996094 275.574219 170.828125 275.917969 C 170.660156 276.257812 170.546875 276.621094 170.496094 277 C 170.441406 277.378906 170.449219 277.753906 170.519531 278.128906 C 170.589844 278.507812 170.714844 278.863281 170.898438 279.199219 C 172.546875 282.175781 174.652344 284.785156 177.214844 287.023438 C 179.488281 289.472656 182.101562 291.476562 185.054688 293.042969 C 185.386719 293.214844 185.738281 293.335938 186.109375 293.398438 C 186.480469 293.460938 186.851562 293.464844 187.226562 293.410156 C 187.597656 293.355469 187.953125 293.246094 188.289062 293.078125 C 188.628906 292.910156 188.929688 292.695312 189.199219 292.433594 C 189.46875 292.171875 189.691406 291.875 189.867188 291.542969 C 190.042969 291.210938 190.160156 290.859375 190.222656 290.488281 C 190.289062 290.117188 190.292969 289.746094 190.238281 289.375 C 190.183594 289 190.074219 288.648438 189.910156 288.308594 C 188.253906 285.269531 186.128906 282.601562 183.53125 280.308594 Z M 179.613281 257.996094 L 184.878906 252.738281 L 199.96875 267.808594 C 201.40625 269.34375 202.96875 270.746094 204.648438 272.011719 C 205.5625 272.660156 206.578125 272.914062 207.691406 272.773438 C 208.753906 272.625 209.652344 272.160156 210.378906 271.371094 C 210.601562 271.203125 210.800781 271.011719 210.980469 270.800781 C 211.15625 270.589844 211.3125 270.363281 211.445312 270.121094 C 211.574219 269.875 211.679688 269.621094 211.757812 269.355469 C 211.832031 269.089844 211.882812 268.816406 211.902344 268.542969 C 211.917969 268.265625 211.910156 267.992188 211.871094 267.71875 C 211.832031 267.445312 211.765625 267.175781 211.667969 266.917969 C 211.574219 266.65625 211.449219 266.410156 211.304688 266.175781 C 211.15625 265.941406 210.984375 265.726562 210.789062 265.53125 C 209.511719 263.894531 208.109375 262.375 206.578125 260.972656 L 191.488281 246.3125 L 195.933594 241.875 L 210.789062 256.710938 C 213.195312 258.847656 215.339844 261.226562 217.222656 263.835938 C 217.785156 264.699219 218.1875 265.632812 218.429688 266.636719 C 218.667969 267.636719 218.734375 268.652344 218.628906 269.675781 C 218.421875 270.992188 218.003906 272.234375 217.371094 273.410156 C 216.738281 274.582031 215.929688 275.613281 214.941406 276.511719 C 213.335938 278.304688 211.386719 279.570312 209.09375 280.308594 C 207.0625 280.746094 205.113281 280.515625 203.246094 279.605469 C 200.222656 277.808594 197.53125 275.609375 195.171875 273.007812 Z M 200.261719 237.375 L 206.109375 231.535156 L 228.921875 241.582031 L 212.484375 225.226562 L 216.582031 221.136719 L 242.960938 247.480469 L 238.28125 252.210938 L 211.84375 240.53125 L 230.96875 259.570312 L 226.875 263.660156 Z M 217.808594 219.851562 L 232.78125 204.898438 L 237.753906 209.863281 L 232.839844 214.769531 L 254.308594 236.148438 L 248.984375 241.464844 L 227.578125 220.027344 L 222.78125 224.816406 Z M 67.894531 286.441406 L 63.917969 296.136719 C 59.589844 293.683594 56.082031 293.742188 53.507812 296.136719 C 52.953125 296.660156 52.53125 297.273438 52.234375 297.972656 C 51.941406 298.675781 51.796875 299.40625 51.808594 300.167969 C 51.808594 300.863281 51.949219 301.53125 52.222656 302.167969 C 52.496094 302.808594 52.886719 303.367188 53.390625 303.847656 C 53.910156 304.398438 54.523438 304.804688 55.230469 305.074219 C 55.941406 305.339844 56.671875 305.4375 57.425781 305.367188 C 60.097656 304.90625 62.667969 304.128906 65.148438 303.03125 C 67.9375 301.820312 70.824219 300.902344 73.804688 300.285156 C 76.269531 299.867188 78.6875 300.0625 81.054688 300.867188 C 83.773438 301.78125 86.113281 303.28125 88.074219 305.367188 C 88.542969 305.777344 88.988281 306.210938 89.410156 306.667969 C 89.832031 307.125 90.226562 307.601562 90.597656 308.101562 C 90.96875 308.601562 91.3125 309.117188 91.628906 309.65625 C 91.941406 310.191406 92.230469 310.742188 92.484375 311.308594 C 92.742188 311.875 92.96875 312.453125 93.164062 313.042969 C 93.359375 313.632812 93.523438 314.230469 93.652344 314.839844 C 93.785156 315.449219 93.882812 316.058594 93.949219 316.679688 C 94.015625 317.296875 94.050781 317.917969 94.050781 318.539062 C 94.050781 319.160156 94.015625 319.78125 93.949219 320.398438 C 93.882812 321.015625 93.785156 321.628906 93.652344 322.234375 C 93.523438 322.84375 93.359375 323.441406 93.164062 324.03125 C 92.96875 324.625 92.742188 325.203125 92.484375 325.769531 C 92.230469 326.335938 91.941406 326.886719 91.628906 327.421875 C 91.3125 327.957031 90.96875 328.472656 90.597656 328.972656 C 90.226562 329.472656 89.832031 329.953125 89.410156 330.410156 C 88.988281 330.867188 88.542969 331.300781 88.074219 331.710938 C 81.289062 338.484375 73.199219 339.050781 63.800781 333.402344 L 68.714844 324 C 73.746094 327.269531 77.78125 327.328125 80.9375 324 C 81.597656 323.394531 82.121094 322.6875 82.507812 321.878906 C 82.890625 321.070312 83.109375 320.21875 83.160156 319.328125 C 83.191406 318.476562 83.042969 317.660156 82.71875 316.875 C 82.390625 316.089844 81.914062 315.40625 81.289062 314.828125 C 80.304688 313.777344 79.097656 313.175781 77.664062 313.019531 C 75.269531 313.121094 73.007812 313.726562 70.878906 314.828125 C 67.824219 316.234375 64.667969 317.34375 61.402344 318.160156 C 58.914062 318.636719 56.457031 318.5 54.03125 317.75 C 51.265625 316.863281 48.867188 315.382812 46.839844 313.308594 C 45.113281 311.703125 43.746094 309.835938 42.738281 307.707031 C 41.726562 305.578125 41.144531 303.335938 40.988281 300.984375 C 40.953125 299.855469 41.039062 298.734375 41.246094 297.621094 C 41.453125 296.507812 41.777344 295.429688 42.214844 294.386719 C 42.65625 293.34375 43.199219 292.359375 43.851562 291.433594 C 44.503906 290.507812 45.246094 289.660156 46.078125 288.894531 C 46.742188 288.136719 47.46875 287.445312 48.257812 286.824219 C 49.046875 286.199219 49.890625 285.65625 50.78125 285.1875 C 51.675781 284.722656 52.601562 284.339844 53.5625 284.046875 C 54.527344 283.75 55.507812 283.546875 56.511719 283.433594 C 57.511719 283.324219 58.511719 283.304688 59.519531 283.375 C 60.523438 283.449219 61.511719 283.617188 62.484375 283.871094 C 63.457031 284.128906 64.398438 284.472656 65.308594 284.90625 C 66.21875 285.335938 67.082031 285.847656 67.894531 286.441406 Z M 64.738281 271.722656 L 75.5 260.972656 C 78.007812 258.304688 80.855469 256.066406 84.039062 254.257812 C 85.394531 253.644531 86.8125 253.304688 88.300781 253.234375 C 89.785156 253.164062 91.230469 253.367188 92.636719 253.847656 C 96.402344 254.921875 99.636719 256.867188 102.347656 259.6875 C 105.039062 262.183594 106.988281 265.164062 108.195312 268.625 C 108.660156 269.980469 108.894531 271.371094 108.894531 272.800781 C 108.894531 274.234375 108.660156 275.625 108.195312 276.976562 C 106.636719 280.582031 104.394531 283.699219 101.46875 286.324219 L 98.546875 289.1875 L 113.753906 304.375 L 106.089844 312.785156 Z M 79.59375 270.144531 L 91.820312 282.351562 L 94.332031 279.78125 C 96.613281 277.5625 97.492188 275.519531 96.964844 273.941406 C 96.308594 271.816406 95.15625 270.007812 93.515625 268.507812 C 92.238281 267.128906 90.71875 266.117188 88.953125 265.472656 C 87.761719 265.015625 86.574219 265.015625 85.382812 265.472656 C 84.148438 266.050781 83.078125 266.851562 82.167969 267.867188 Z M 93.457031 243.101562 L 116.210938 220.378906 L 123.226562 227.386719 L 108.722656 241.871094 L 118.257812 251.453125 L 129.488281 240.472656 L 136.507812 247.480469 L 125.21875 258.753906 L 135.335938 268.566406 L 149.902344 254.082031 L 157.210938 261.382812 L 134.457031 284.105469 Z M 164.582031 224.234375 L 172.652344 217.105469 C 174.59375 219.113281 176.160156 221.378906 177.363281 223.894531 C 178.5625 226.414062 179.332031 229.058594 179.671875 231.828125 C 179.816406 233.050781 179.816406 234.277344 179.671875 235.5 C 179.527344 236.726562 179.242188 237.917969 178.8125 239.074219 C 178.386719 240.230469 177.832031 241.320312 177.144531 242.347656 C 176.460938 243.375 175.664062 244.304688 174.757812 245.144531 C 173.757812 246.234375 172.625 247.175781 171.371094 247.964844 C 170.113281 248.753906 168.777344 249.367188 167.359375 249.796875 C 165.9375 250.226562 164.488281 250.464844 163.003906 250.507812 C 161.519531 250.550781 160.058594 250.398438 158.617188 250.050781 C 154.9375 249.046875 151.472656 247.554688 148.222656 245.566406 C 144.96875 243.582031 142.058594 241.179688 139.488281 238.367188 C 136.625 235.796875 134.171875 232.886719 132.125 229.628906 C 130.074219 226.375 128.515625 222.902344 127.441406 219.210938 C 127.097656 217.75 126.953125 216.273438 127.003906 214.773438 C 127.054688 213.277344 127.300781 211.8125 127.742188 210.378906 C 128.183594 208.949219 128.808594 207.597656 129.609375 206.332031 C 130.410156 205.066406 131.363281 203.925781 132.46875 202.914062 C 140.269531 195.125 149.824219 196.175781 161.132812 206.066406 L 154.230469 214.1875 C 147.910156 208.34375 143.117188 206.941406 139.898438 210.214844 C 139.464844 210.679688 139.105469 211.199219 138.824219 211.773438 C 138.542969 212.34375 138.351562 212.945312 138.246094 213.570312 C 138.144531 214.199219 138.132812 214.832031 138.214844 215.460938 C 138.296875 216.09375 138.46875 216.699219 138.730469 217.28125 C 141.136719 222.28125 144.449219 226.585938 148.671875 230.191406 C 151.953125 234.003906 155.855469 237.023438 160.371094 239.246094 C 160.953125 239.5 161.5625 239.664062 162.199219 239.734375 C 162.832031 239.804688 163.460938 239.777344 164.089844 239.660156 C 164.714844 239.539062 165.308594 239.328125 165.871094 239.03125 C 166.433594 238.730469 166.941406 238.355469 167.390625 237.902344 C 170.429688 234.628906 169.554688 230.25 164.582031 224.234375 Z M 150.835938 185.738281 L 159.082031 177.5625 L 200.027344 218.449219 L 191.839844 226.6875 Z M 172.710938 163.894531 L 181.019531 155.597656 L 232.78125 185.972656 L 224.417969 194.382812 L 214.066406 187.902344 L 203.480469 198.414062 L 210.148438 208.695312 L 202.601562 216.289062 Z M 205.527344 182.058594 L 184.820312 169.210938 L 198.039062 189.652344 Z M 194.878906 141.582031 L 203.128906 133.34375 L 236.527344 166.699219 L 248.574219 154.664062 L 256.296875 162.375 L 235.941406 182.878906 Z M 194.878906 141.582031 " fill-opacity="1" fill-rule="nonzero"/></svg>