<svg xmlns="http://www.w3.org/2000/svg" xmlns:xlink="http://www.w3.org/1999/xlink" width="200" zoomAndPan="magnify" viewBox="0 0 150 149.999998" height="200" preserveAspectRatio="xMidYMid meet" version="1.0"><rect x="-15" width="180" fill="#ffffff" y="-15" height="179.999997" fill-opacity="1"/><rect x="-15" width="180" fill="#ffffff" y="-15" height="179.999997" fill-opacity="1"/><path stroke-linecap="butt" transform="matrix(0.3367, 0, 0, 0.3367, -5.976428, -4.006732)" fill-opacity="1" fill="#4267b2" fill-rule="nonzero" stroke-linejoin="miter" d="M 462.704735 234.603596 C 462.704735 238.234885 462.611923 241.866174 462.437899 245.497463 C 462.252274 249.140354 461.985438 252.760042 461.62579 256.379729 C 461.277743 259.999417 460.825282 263.607503 460.29161 267.203988 C 459.757938 270.800472 459.143056 274.385355 458.43536 277.947035 C 457.716063 281.520316 456.927157 285.058793 456.045438 288.585668 C 455.152118 292.112543 454.189188 295.616215 453.133446 299.096684 C 452.077704 302.577153 450.940751 306.034419 449.710985 309.45688 C 448.481219 312.879341 447.181844 316.266997 445.789657 319.63145 C 444.397469 322.995904 442.924071 326.313951 441.369461 329.597193 C 439.814852 332.892037 438.179031 336.140474 436.462 339.342506 C 434.744969 342.556139 432.958328 345.711764 431.090476 348.832584 C 429.222625 351.953405 427.273562 355.027819 425.25489 358.044225 C 423.236218 361.072233 421.136335 364.042233 418.978445 366.965827 C 416.808952 369.889421 414.569851 372.755007 412.26114 375.562585 C 409.952429 378.370163 407.58571 381.131335 405.13778 383.822898 C 402.701452 386.514461 400.195514 389.148015 397.619967 391.723562 C 395.04442 394.287508 392.410866 396.793445 389.719303 399.241375 C 387.02774 401.677703 384.27817 404.056024 381.45899 406.364735 C 378.651412 408.673446 375.785826 410.900946 372.862232 413.070438 C 369.938638 415.23993 366.968638 417.328212 363.952232 419.346884 C 360.924224 421.377157 357.84981 423.314618 354.728989 425.18247 C 351.61977 427.061923 348.452544 428.848564 345.238911 430.565595 C 342.036879 432.282626 338.788442 433.906845 335.505199 435.461455 C 332.210356 437.016064 328.892309 438.489463 325.527855 439.88165 C 322.175004 441.273838 318.775746 442.584814 315.353285 443.81458 C 311.930824 445.032744 308.485159 446.181299 305.004691 447.237041 C 301.524222 448.292783 298.02055 449.255713 294.493675 450.137432 C 290.966799 451.019151 287.416721 451.819658 283.84344 452.527354 C 280.28176 453.235049 276.696877 453.861533 273.100393 454.395205 C 269.503908 454.928877 265.895822 455.369737 262.276134 455.729385 C 258.656447 456.089034 255.036759 456.355869 251.40547 456.529893 C 247.774181 456.715518 244.13129 456.796729 240.500001 456.796729 C 236.868711 456.796729 233.225821 456.715518 229.594532 456.529893 C 225.963242 456.355869 222.343555 456.089034 218.723867 455.729385 C 215.104179 455.369737 211.496093 454.928877 207.899609 454.395205 C 204.303124 453.861533 200.718241 453.235049 197.156562 452.527354 C 193.58328 451.819658 190.033202 451.019151 186.506327 450.137432 C 182.979452 449.255713 179.47578 448.292783 175.995311 447.237041 C 172.514842 446.181299 169.069178 445.032744 165.646717 443.81458 C 162.224256 442.584814 158.824998 441.273838 155.472146 439.88165 C 152.107693 438.489463 148.789646 437.016064 145.494802 435.461455 C 142.21156 433.906845 138.963122 432.282626 135.761091 430.565595 C 132.547458 428.848564 129.380231 427.061923 126.271012 425.18247 C 123.150192 423.314618 120.075778 421.377157 117.04777 419.346884 C 114.031363 417.328212 111.061363 415.23993 108.137769 413.070438 C 105.214175 410.900946 102.348589 408.673446 99.541011 406.364735 C 96.721831 404.056024 93.972261 401.677703 91.280698 399.241375 C 88.589136 396.793445 85.955581 394.287508 83.380034 391.723562 C 80.804487 389.148015 78.298549 386.514461 75.862221 383.822898 C 73.414291 381.131335 71.047573 378.370163 68.738862 375.562585 C 66.430151 372.755007 64.191049 369.889421 62.021557 366.965827 C 59.863666 364.042233 57.763783 361.072233 55.745111 358.044225 C 53.726439 355.027819 51.777377 351.953405 49.909525 348.832584 C 48.041673 345.711764 46.255033 342.556139 44.538001 339.342506 C 42.82097 336.140474 41.18515 332.892037 39.63054 329.597193 C 38.075931 326.313951 36.602532 322.995904 35.210345 319.63145 C 33.818157 316.266997 32.518782 312.879341 31.289016 309.45688 C 30.059251 306.034419 28.922298 302.577153 27.866555 299.096684 C 26.810813 295.616215 25.847883 292.112543 24.954563 288.585668 C 24.072844 285.058793 23.283938 281.520316 22.564641 277.947035 C 21.856946 274.385355 21.242063 270.800472 20.708391 267.203988 C 20.174719 263.607503 19.722258 259.999417 19.374211 256.379729 C 19.014563 252.760042 18.747727 249.140354 18.562102 245.497463 C 18.388078 241.866174 18.295266 238.234885 18.295266 234.603596 C 18.295266 230.960705 18.388078 227.329416 18.562102 223.698127 C 18.747727 220.066837 19.014563 216.435548 19.374211 212.815861 C 19.722258 209.196173 20.174719 205.588087 20.708391 201.991602 C 21.242063 198.395118 21.856946 194.821836 22.564641 191.248555 C 23.283938 187.686875 24.072844 184.136797 24.954563 180.609922 C 25.847883 177.083047 26.810813 173.579375 27.866555 170.098906 C 28.922298 166.618437 30.059251 163.161171 31.289016 159.73871 C 32.518782 156.316249 33.818157 152.928593 35.210345 149.564139 C 36.602532 146.211288 38.075931 142.881639 39.63054 139.598397 C 41.18515 136.315155 42.82097 133.066717 44.538001 129.853084 C 46.255033 126.651053 48.041673 123.483826 49.909525 120.363006 C 51.777377 117.242185 53.726439 114.179373 55.745111 111.151365 C 57.763783 108.123357 59.863666 105.153357 62.021557 102.241364 C 64.191049 99.31777 66.430151 96.452184 68.738862 93.633005 C 71.047573 90.825426 73.414291 88.075856 75.862221 85.384293 C 78.298549 82.681129 80.804487 80.047574 83.380034 77.483629 C 85.955581 74.908082 88.589136 72.402144 91.280698 69.965816 C 93.972261 67.517886 96.721831 65.139566 99.541011 62.842457 C 102.348589 60.533746 105.214175 58.294644 108.137769 56.125152 C 111.061363 53.955659 114.031363 51.867378 117.04777 49.848706 C 120.075778 47.830034 123.150192 45.880972 126.271012 44.01312 C 129.380231 42.145268 132.547458 40.347026 135.761091 38.641596 C 138.963122 36.924565 142.21156 35.288745 145.494802 33.734135 C 148.789646 32.179526 152.107693 30.706127 155.472146 29.31394 C 158.824998 27.921752 162.224256 26.610776 165.646717 25.392611 C 169.069178 24.162846 172.514842 23.025893 175.995311 21.97015 C 179.47578 20.914408 182.979452 19.939877 186.506327 19.058158 C 190.033202 18.176439 193.58328 17.375931 197.156562 16.668236 C 200.718241 15.960541 204.303124 15.334056 207.899609 14.800385 C 211.496093 14.266713 215.104179 13.825853 218.723867 13.466205 C 222.343555 13.118158 225.963242 12.851322 229.594532 12.665697 C 233.225821 12.491673 236.868711 12.398861 240.500001 12.398861 C 244.13129 12.398861 247.774181 12.491673 251.40547 12.665697 C 255.036759 12.851322 258.656447 13.118158 262.276134 13.466205 C 265.895822 13.825853 269.503908 14.266713 273.100393 14.800385 C 276.696877 15.334056 280.28176 15.960541 283.84344 16.668236 C 287.416721 17.375931 290.966799 18.176439 294.493675 19.058158 C 298.02055 19.939877 301.524222 20.914408 305.004691 21.97015 C 308.485159 23.025893 311.930824 24.162846 315.353285 25.392611 C 318.775746 26.610776 322.175004 27.921752 325.527855 29.31394 C 328.892309 30.706127 332.210356 32.179526 335.505199 33.734135 C 338.788442 35.288745 342.036879 36.924565 345.238911 38.641596 C 348.452544 40.347026 351.61977 42.145268 354.728989 44.01312 C 357.84981 45.880972 360.924224 47.830034 363.952232 49.848706 C 366.968638 51.867378 369.938638 53.955659 372.862232 56.125152 C 375.785826 58.294644 378.651412 60.533746 381.45899 62.842457 C 384.27817 65.139566 387.02774 67.517886 389.719303 69.965816 C 392.410866 72.402144 395.04442 74.908082 397.619967 77.483629 C 400.195514 80.047574 402.701452 82.681129 405.13778 85.384293 C 407.58571 88.075856 409.952429 90.825426 412.26114 93.633005 C 414.569851 96.452184 416.808952 99.31777 418.978445 102.241364 C 421.136335 105.153357 423.236218 108.123357 425.25489 111.151365 C 427.273562 114.179373 429.222625 117.242185 431.090476 120.363006 C 432.958328 123.483826 434.744969 126.651053 436.462 129.853084 C 438.179031 133.066717 439.814852 136.315155 441.369461 139.598397 C 442.924071 142.881639 444.397469 146.211288 445.789657 149.564139 C 447.181844 152.928593 448.481219 156.316249 449.710985 159.73871 C 450.940751 163.161171 452.077704 166.618437 453.133446 170.098906 C 454.189188 173.579375 455.152118 177.083047 456.045438 180.609922 C 456.927157 184.136797 457.716063 187.686875 458.43536 191.248555 C 459.143056 194.821836 459.757938 198.395118 460.29161 201.991602 C 460.825282 205.588087 461.277743 209.196173 461.62579 212.815861 C 461.985438 216.435548 462.252274 220.066837 462.437899 223.698127 C 462.611923 227.329416 462.704735 230.960705 462.704735 234.603596 Z M 462.704735 234.603596 " stroke="#4267b2" stroke-width="1" stroke-opacity="1" stroke-miterlimit="10"/><path stroke-linecap="butt" transform="matrix(0.3367, 0, 0, 0.3367, -5.976428, -4.006732)" fill-opacity="1" fill="#ffffff" fill-rule="nonzero" stroke-linejoin="miter" d="M 292.695432 78.005699 C 275.003049 81.196129 268.900627 84.200934 258.702853 90.001715 C 247.797384 96.19695 240.19836 102.705427 235.00086 107.995739 C 218.00457 125.59531 214.199258 141.99992 210.997226 154.703632 C 206.205781 173.405351 206.704648 191.004922 206.704648 191.004922 L 206.704648 204.694766 L 170.995037 204.694766 L 170.995037 266.797933 L 206.704648 266.797933 L 206.704648 454.302393 C 217.70293 455.996221 229.002852 456.901143 240.500001 456.901143 C 257.49629 456.901143 274.098127 454.998487 290.00387 451.402002 L 290.00387 266.797933 L 344.299184 266.797933 L 344.299184 204.694766 L 290.00387 204.694766 L 290.00387 191.503789 C 290.00387 191.503789 290.00387 189.102266 290.00387 188.800625 C 290.00387 188.498985 290.00387 188.104531 290.00387 187.802891 C 290.00387 185.099727 290.096682 181.097187 290.699963 177.605117 C 292.196565 168.49789 295.305784 161.397734 300.503284 155.098085 C 306.501292 147.905116 313.497035 144.795897 321.304886 143.600936 C 340.598286 140.596131 356.701255 147.301835 356.701255 147.301835 L 359.694458 81.996637 C 359.694458 81.996637 347.60563 78.098512 327.604535 76.694723 C 313.497035 75.696988 301.002151 76.497496 292.695432 78.005699 Z M 292.695432 78.005699 " stroke="#ffffff" stroke-width="1" stroke-opacity="1" stroke-miterlimit="10"/></svg>