<svg xmlns="http://www.w3.org/2000/svg" xmlns:xlink="http://www.w3.org/1999/xlink" width="160" zoomAndPan="magnify" viewBox="0 0 120 106.499997" height="142" preserveAspectRatio="xMidYMid meet" version="1.0"><defs><clipPath id="98080c92e5"><path d="M 60.191406 53 L 61.554688 53 L 61.554688 54.367188 L 60.191406 54.367188 Z M 60.191406 53 " clip-rule="nonzero"/></clipPath><clipPath id="542229bc6e"><path d="M 60.871094 53 C 60.496094 53 60.191406 53.308594 60.191406 53.683594 C 60.191406 54.0625 60.496094 54.367188 60.871094 54.367188 C 61.25 54.367188 61.554688 54.0625 61.554688 53.683594 C 61.554688 53.308594 61.25 53 60.871094 53 Z M 60.871094 53 " clip-rule="nonzero"/></clipPath><clipPath id="807068e7df"><path d="M 7 0 L 113 0 L 113 106.003906 L 7 106.003906 Z M 7 0 " clip-rule="nonzero"/></clipPath></defs><g clip-path="url(#98080c92e5)"><g clip-path="url(#542229bc6e)"><path fill="#7d8a50" d="M 60.191406 53 L 61.554688 53 L 61.554688 54.367188 L 60.191406 54.367188 Z M 60.191406 53 " fill-opacity="1" fill-rule="nonzero"/></g></g><g clip-path="url(#807068e7df)"><path fill="#e42833" d="M 113 53 C 113 54.738281 112.917969 56.46875 112.746094 58.195312 C 112.574219 59.921875 112.320312 61.636719 111.984375 63.339844 C 111.644531 65.042969 111.222656 66.726562 110.71875 68.386719 C 110.214844 70.046875 109.632812 71.679688 108.964844 73.285156 C 108.300781 74.886719 107.5625 76.453125 106.742188 77.984375 C 105.925781 79.515625 105.035156 81.003906 104.070312 82.445312 C 103.105469 83.890625 102.070312 85.28125 100.96875 86.625 C 99.871094 87.964844 98.703125 89.25 97.476562 90.480469 C 96.25 91.707031 94.964844 92.871094 93.625 93.972656 C 92.28125 95.074219 90.890625 96.105469 89.445312 97.070312 C 88.003906 98.035156 86.515625 98.925781 84.984375 99.742188 C 83.453125 100.5625 81.886719 101.304688 80.28125 101.96875 C 78.679688 102.632812 77.046875 103.214844 75.386719 103.71875 C 73.722656 104.222656 72.042969 104.644531 70.339844 104.984375 C 68.636719 105.324219 66.921875 105.578125 65.195312 105.746094 C 63.46875 105.917969 61.734375 106.003906 60 106.003906 C 58.265625 106.003906 56.53125 105.917969 54.804688 105.746094 C 53.078125 105.578125 51.363281 105.324219 49.660156 104.984375 C 47.957031 104.644531 46.277344 104.222656 44.613281 103.71875 C 42.953125 103.214844 41.320312 102.632812 39.71875 101.96875 C 38.113281 101.304688 36.546875 100.5625 35.015625 99.742188 C 33.484375 98.925781 31.996094 98.035156 30.554688 97.070312 C 29.109375 96.105469 27.71875 95.074219 26.375 93.972656 C 25.035156 92.871094 23.75 91.707031 22.523438 90.480469 C 21.296875 89.25 20.128906 87.964844 19.03125 86.625 C 17.929688 85.28125 16.894531 83.890625 15.929688 82.445312 C 14.964844 81.003906 14.074219 79.515625 13.257812 77.984375 C 12.4375 76.453125 11.699219 74.886719 11.035156 73.285156 C 10.367188 71.679688 9.785156 70.046875 9.28125 68.386719 C 8.777344 66.726562 8.355469 65.042969 8.015625 63.339844 C 7.679688 61.636719 7.425781 59.921875 7.253906 58.195312 C 7.082031 56.46875 7 54.738281 7 53 C 7 51.265625 7.082031 49.535156 7.253906 47.804688 C 7.425781 46.078125 7.679688 44.363281 8.015625 42.660156 C 8.355469 40.957031 8.777344 39.277344 9.28125 37.617188 C 9.785156 35.953125 10.367188 34.320312 11.035156 32.71875 C 11.699219 31.113281 12.4375 29.546875 13.257812 28.015625 C 14.074219 26.484375 14.964844 25 15.929688 23.554688 C 16.894531 22.113281 17.929688 20.71875 19.03125 19.378906 C 20.128906 18.035156 21.296875 16.75 22.523438 15.523438 C 23.75 14.296875 25.035156 13.132812 26.375 12.03125 C 27.71875 10.929688 29.109375 9.898438 30.554688 8.933594 C 31.996094 7.96875 33.484375 7.078125 35.015625 6.257812 C 36.546875 5.441406 38.113281 4.699219 39.71875 4.035156 C 41.320312 3.371094 42.953125 2.785156 44.613281 2.28125 C 46.277344 1.777344 47.957031 1.355469 49.660156 1.019531 C 51.363281 0.679688 53.078125 0.425781 54.804688 0.253906 C 56.53125 0.0859375 58.265625 0 60 0 C 61.734375 0 63.46875 0.0859375 65.195312 0.253906 C 66.921875 0.425781 68.636719 0.679688 70.339844 1.019531 C 72.042969 1.355469 73.722656 1.777344 75.386719 2.28125 C 77.046875 2.785156 78.679688 3.371094 80.28125 4.035156 C 81.886719 4.699219 83.453125 5.441406 84.984375 6.257812 C 86.515625 7.078125 88.003906 7.96875 89.445312 8.933594 C 90.890625 9.898438 92.28125 10.929688 93.625 12.03125 C 94.964844 13.132812 96.25 14.296875 97.476562 15.523438 C 98.703125 16.75 99.871094 18.035156 100.96875 19.378906 C 102.070312 20.71875 103.105469 22.113281 104.070312 23.554688 C 105.035156 25 105.925781 26.484375 106.742188 28.015625 C 107.5625 29.546875 108.300781 31.113281 108.964844 32.71875 C 109.632812 34.320312 110.214844 35.953125 110.71875 37.617188 C 111.222656 39.277344 111.644531 40.957031 111.984375 42.660156 C 112.320312 44.363281 112.574219 46.078125 112.746094 47.804688 C 112.917969 49.535156 113 51.265625 113 53 Z M 113 53 " fill-opacity="1" fill-rule="nonzero"/></g><path fill="#ffffff" d="M 60.519531 66.820312 C 60.5 66.839844 60.480469 66.839844 60.460938 66.859375 C 60.441406 66.859375 60.441406 66.878906 60.425781 66.878906 C 60.386719 66.898438 60.328125 66.917969 60.289062 66.9375 C 60.269531 66.9375 60.269531 66.9375 60.25 66.953125 C 60.230469 66.953125 60.210938 66.953125 60.191406 66.972656 C 60.136719 66.992188 60.078125 66.992188 60.019531 66.992188 C 59.960938 66.992188 59.902344 66.992188 59.847656 66.972656 C 59.828125 66.972656 59.808594 66.972656 59.789062 66.953125 C 59.769531 66.953125 59.769531 66.953125 59.75 66.9375 C 59.710938 66.917969 59.652344 66.898438 59.613281 66.878906 C 59.59375 66.878906 59.59375 66.859375 59.574219 66.859375 C 59.558594 66.859375 59.539062 66.839844 59.519531 66.820312 L 56.898438 65.199219 L 33.578125 79.484375 L 86.5 79.484375 L 63.179688 65.199219 Z M 60.519531 66.820312 " fill-opacity="1" fill-rule="nonzero"/><path fill="#ffffff" d="M 82.703125 53.234375 L 82.625 53.269531 L 64.992188 64.082031 L 88.910156 78.75 L 88.910156 49.417969 Z M 82.703125 53.234375 " fill-opacity="1" fill-rule="nonzero"/><path fill="#ffffff" d="M 37.375 53.269531 L 37.296875 53.234375 L 31.089844 49.417969 L 31.089844 78.730469 L 55.007812 64.0625 Z M 37.375 53.269531 " fill-opacity="1" fill-rule="nonzero"/><path fill="#ffffff" d="M 36.871094 45.40625 L 32.113281 47.777344 L 36.871094 50.707031 Z M 36.871094 45.40625 " fill-opacity="1" fill-rule="nonzero"/><path fill="#ffffff" d="M 83.128906 45.40625 L 83.128906 50.707031 L 87.886719 47.777344 Z M 83.128906 45.40625 " fill-opacity="1" fill-rule="nonzero"/><path fill="#ffffff" d="M 57.378906 63.273438 L 60 64.875 L 62.621094 63.273438 C 62.621094 63.273438 62.640625 63.273438 62.640625 63.253906 L 81.199219 51.882812 L 81.199219 26.5 L 38.800781 26.5 L 38.800781 51.882812 L 57.378906 63.273438 C 57.359375 63.273438 57.378906 63.273438 57.378906 63.273438 Z M 41.691406 28.429688 L 78.308594 28.429688 C 78.847656 28.429688 79.273438 28.851562 79.273438 29.390625 C 79.273438 29.929688 78.847656 30.355469 78.308594 30.355469 L 41.691406 30.355469 C 41.152344 30.355469 40.726562 29.929688 40.726562 29.390625 C 40.726562 28.851562 41.152344 28.429688 41.691406 28.429688 Z M 41.691406 33.246094 L 78.308594 33.246094 C 78.847656 33.246094 79.273438 33.671875 79.273438 34.210938 C 79.273438 34.75 78.847656 35.171875 78.308594 35.171875 L 41.691406 35.171875 C 41.152344 35.171875 40.726562 34.75 40.726562 34.210938 C 40.726562 33.671875 41.152344 33.246094 41.691406 33.246094 Z M 71.5625 40.957031 C 73.164062 40.957031 74.453125 42.246094 74.453125 43.847656 C 74.453125 45.445312 73.164062 46.738281 71.5625 46.738281 L 69.636719 46.738281 C 69.097656 46.738281 68.671875 46.3125 68.671875 45.773438 C 68.671875 45.234375 69.097656 44.808594 69.636719 44.808594 L 71.5625 44.808594 C 72.105469 44.808594 72.527344 44.386719 72.527344 43.847656 C 72.527344 43.308594 72.105469 42.882812 71.5625 42.882812 C 69.964844 42.882812 68.671875 41.589844 68.671875 39.992188 C 68.671875 38.390625 69.964844 37.101562 71.5625 37.101562 L 73.492188 37.101562 C 74.03125 37.101562 74.453125 37.523438 74.453125 38.066406 C 74.453125 38.605469 74.03125 39.027344 73.492188 39.027344 L 71.5625 39.027344 C 71.023438 39.027344 70.601562 39.453125 70.601562 39.992188 C 70.601562 40.53125 71.023438 40.957031 71.5625 40.957031 Z M 62.214844 42.207031 C 62.601562 41.84375 63.199219 41.84375 63.585938 42.207031 L 64.835938 43.460938 L 64.835938 38.082031 C 64.835938 37.542969 65.261719 37.121094 65.800781 37.121094 C 66.339844 37.121094 66.765625 37.542969 66.765625 38.082031 L 66.765625 45.792969 C 66.765625 46.179688 66.535156 46.523438 66.167969 46.679688 C 66.050781 46.738281 65.917969 46.757812 65.800781 46.757812 C 65.550781 46.757812 65.300781 46.660156 65.125 46.46875 L 62.890625 44.25 L 60.675781 46.449219 C 60.480469 46.640625 60.25 46.738281 60 46.738281 C 59.882812 46.738281 59.75 46.71875 59.632812 46.660156 C 59.269531 46.507812 59.035156 46.160156 59.035156 45.773438 L 59.035156 38.066406 C 59.035156 37.523438 59.460938 37.101562 60 37.101562 C 60.539062 37.101562 60.964844 37.523438 60.964844 38.066406 L 60.964844 43.441406 Z M 56.144531 40.957031 C 56.683594 40.957031 57.109375 41.378906 57.109375 41.917969 C 57.109375 42.457031 56.683594 42.882812 56.144531 42.882812 L 54.21875 42.882812 L 54.21875 44.808594 L 56.144531 44.808594 C 56.683594 44.808594 57.109375 45.234375 57.109375 45.773438 C 57.109375 46.3125 56.683594 46.738281 56.144531 46.738281 L 53.253906 46.738281 C 52.714844 46.738281 52.289062 46.3125 52.289062 45.773438 L 52.289062 38.066406 C 52.289062 37.523438 52.714844 37.101562 53.253906 37.101562 L 56.144531 37.101562 C 56.683594 37.101562 57.109375 37.523438 57.109375 38.066406 C 57.109375 38.605469 56.683594 39.027344 56.144531 39.027344 L 54.21875 39.027344 L 54.21875 40.957031 Z M 50.363281 38.066406 L 50.363281 45.773438 C 50.363281 46.179688 50.113281 46.542969 49.746094 46.679688 C 49.632812 46.71875 49.515625 46.738281 49.398438 46.738281 C 49.128906 46.738281 48.859375 46.621094 48.667969 46.410156 L 43.617188 40.628906 L 43.617188 45.773438 C 43.617188 46.3125 43.195312 46.738281 42.652344 46.738281 C 42.113281 46.738281 41.691406 46.3125 41.691406 45.773438 L 41.691406 38.066406 C 41.691406 37.660156 41.941406 37.3125 42.308594 37.160156 C 42.691406 37.023438 43.117188 37.121094 43.367188 37.429688 L 48.417969 43.210938 L 48.417969 38.066406 C 48.417969 37.523438 48.839844 37.101562 49.378906 37.101562 C 49.921875 37.101562 50.363281 37.523438 50.363281 38.066406 Z M 40.726562 49.628906 C 40.726562 49.089844 41.152344 48.664062 41.691406 48.664062 L 78.308594 48.664062 C 78.847656 48.664062 79.273438 49.089844 79.273438 49.628906 C 79.273438 50.167969 78.847656 50.59375 78.308594 50.59375 L 41.691406 50.59375 C 41.152344 50.59375 40.726562 50.167969 40.726562 49.628906 Z M 48.4375 54.445312 C 48.4375 53.90625 48.859375 53.484375 49.398438 53.484375 L 70.601562 53.484375 C 71.140625 53.484375 71.5625 53.90625 71.5625 54.445312 C 71.5625 54.984375 71.140625 55.410156 70.601562 55.410156 L 49.398438 55.410156 C 48.859375 55.410156 48.4375 54.984375 48.4375 54.445312 Z M 48.4375 54.445312 " fill-opacity="1" fill-rule="nonzero"/></svg>