<svg xmlns="http://www.w3.org/2000/svg" xmlns:xlink="http://www.w3.org/1999/xlink" width="160" zoomAndPan="magnify" viewBox="0 0 120 106.499997" height="142" preserveAspectRatio="xMidYMid meet" version="1.0"><defs><clipPath id="73c39e3726"><path d="M 60.191406 53 L 61.554688 53 L 61.554688 54.367188 L 60.191406 54.367188 Z M 60.191406 53 " clip-rule="nonzero"/></clipPath><clipPath id="c8c6163bd7"><path d="M 60.871094 53 C 60.496094 53 60.191406 53.308594 60.191406 53.683594 C 60.191406 54.0625 60.496094 54.367188 60.871094 54.367188 C 61.25 54.367188 61.554688 54.0625 61.554688 53.683594 C 61.554688 53.308594 61.25 53 60.871094 53 Z M 60.871094 53 " clip-rule="nonzero"/></clipPath><clipPath id="f7ff7fdb5e"><path d="M 5.207031 0 L 114.941406 0 L 114.941406 106 L 5.207031 106 Z M 5.207031 0 " clip-rule="nonzero"/></clipPath></defs><g clip-path="url(#73c39e3726)"><g clip-path="url(#c8c6163bd7)"><path fill="#7d8a50" d="M 60.191406 53 L 61.554688 53 L 61.554688 54.367188 L 60.191406 54.367188 Z M 60.191406 53 " fill-opacity="1" fill-rule="nonzero"/></g></g><g clip-path="url(#f7ff7fdb5e)"><path fill="#023047" d="M 114.113281 94.832031 L 103.261719 83.980469 C 103.125 83.839844 102.960938 83.730469 102.796875 83.644531 L 94.53125 78.867188 C 93.832031 78.460938 92.960938 78.597656 92.414062 79.144531 L 91.054688 80.503906 L 80.792969 70.601562 C 81.457031 65.996094 81.816406 61.207031 81.816406 56.296875 C 81.816406 44.453125 79.816406 33.367188 76.347656 23.925781 C 72.726562 14.082031 67.488281 6 61.230469 0.671875 C 60.902344 0.390625 60.496094 0.25 60.09375 0.242188 L 59.925781 0.242188 C 59.441406 0.242188 59 0.441406 58.683594 0.761719 C 52.472656 6.089844 47.273438 14.136719 43.675781 23.925781 C 42.691406 26.597656 41.84375 29.410156 41.109375 32.324219 L 34.847656 26.285156 L 36.558594 24.570312 C 37.246094 23.886719 37.246094 22.773438 36.558594 22.089844 L 26 11.53125 C 25.316406 10.84375 24.203125 10.84375 23.519531 11.53125 L 21.570312 13.476562 L 15.980469 8.089844 L 20.984375 3.261719 C 21.683594 2.59375 21.703125 1.484375 21.035156 0.789062 C 20.367188 0.0898438 19.257812 0.0703125 18.5625 0.738281 L 5.933594 12.917969 C 5.238281 13.585938 5.214844 14.695312 5.886719 15.390625 C 6.554688 16.085938 7.664062 16.109375 8.359375 15.441406 L 13.457031 10.523438 L 19.089844 15.957031 L 17.378906 17.667969 C 16.695312 18.355469 16.695312 19.464844 17.378906 20.152344 L 27.941406 30.710938 C 28.625 31.394531 29.738281 31.394531 30.421875 30.710938 L 32.371094 28.761719 L 40.199219 36.3125 C 38.914062 42.59375 38.199219 49.308594 38.199219 56.296875 C 38.199219 65.890625 39.53125 75.011719 41.890625 83.171875 C 44.359375 91.691406 47.964844 99.160156 52.367188 105.023438 C 52.710938 105.480469 53.234375 105.722656 53.765625 105.722656 L 53.765625 105.730469 L 66.246094 105.730469 C 66.855469 105.730469 67.390625 105.421875 67.707031 104.957031 C 72.0625 99.097656 75.648438 91.628906 78.117188 83.109375 C 78.890625 80.433594 79.542969 77.648438 80.085938 74.785156 L 88.578125 82.980469 L 88.039062 83.519531 C 87.433594 84.121094 87.363281 85.058594 87.824219 85.738281 L 92.535156 93.886719 C 92.625 94.078125 92.75 94.25 92.898438 94.394531 L 103.722656 105.21875 C 104.410156 105.902344 105.519531 105.902344 106.207031 105.21875 L 114.109375 97.316406 C 114.796875 96.625 114.796875 95.515625 114.113281 94.832031 Z M 29.179688 26.984375 L 21.105469 18.910156 L 24.757812 15.25 L 32.835938 23.328125 Z M 78.304688 56.296875 C 78.304688 60.148438 78.070312 63.914062 77.644531 67.566406 L 52.269531 43.089844 L 60.007812 37.953125 L 78.082031 49.949219 C 78.214844 52.039062 78.304688 54.152344 78.304688 56.296875 Z M 46.964844 25.132812 C 50.171875 16.414062 54.675781 9.203125 60.011719 4.265625 C 65.347656 9.203125 69.847656 16.414062 73.054688 25.132812 C 75.3125 31.265625 76.898438 38.148438 77.703125 45.492188 L 60.992188 34.40625 C 60.421875 34.015625 59.648438 33.988281 59.042969 34.390625 L 49.6875 40.601562 L 44.035156 35.148438 C 44.832031 31.644531 45.804688 28.285156 46.964844 25.132812 Z M 46.703125 42.582031 L 42.316406 45.492188 C 42.550781 43.359375 42.839844 41.261719 43.207031 39.214844 Z M 65.359375 102.21875 L 54.648438 102.21875 C 50.730469 96.800781 47.507812 89.96875 45.253906 82.199219 C 44.75 80.464844 44.304688 78.671875 43.90625 76.847656 C 44.109375 76.800781 44.3125 76.730469 44.496094 76.609375 L 60.007812 66.3125 L 75.503906 76.59375 C 75.6875 76.71875 75.890625 76.792969 76.09375 76.835938 C 75.695312 78.640625 75.253906 80.414062 74.753906 82.136719 C 72.5 89.925781 69.269531 96.78125 65.359375 102.21875 Z M 76.816406 73.261719 L 60.992188 62.761719 C 60.421875 62.371094 59.648438 62.34375 59.042969 62.746094 L 43.1875 73.269531 C 42.230469 67.890625 41.710938 62.199219 41.710938 56.296875 C 41.710938 54.152344 41.800781 52.039062 41.933594 49.949219 L 49.28125 45.074219 L 77.046875 71.855469 C 76.972656 72.328125 76.898438 72.796875 76.816406 73.261719 Z M 104.964844 101.492188 L 95.511719 92.039062 L 91.472656 85.046875 L 93.945312 82.574219 L 100.933594 86.613281 L 110.386719 96.066406 Z M 37.308594 90.078125 C 37.785156 90.917969 37.492188 91.988281 36.648438 92.464844 C 35.808594 92.941406 34.742188 92.648438 34.261719 91.808594 C 31.320312 86.648438 29.097656 80.929688 27.742188 74.804688 C 26.4375 68.90625 25.933594 62.652344 26.363281 56.1875 C 26.570312 53.054688 26.992188 49.964844 27.609375 46.925781 C 28.238281 43.824219 29.070312 40.808594 30.078125 37.894531 C 30.394531 36.984375 31.394531 36.5 32.308594 36.820312 C 33.21875 37.136719 33.703125 38.136719 33.382812 39.046875 C 32.417969 41.832031 31.628906 44.695312 31.035156 47.609375 C 30.457031 50.464844 30.058594 53.402344 29.859375 56.40625 C 29.453125 62.554688 29.925781 68.484375 31.15625 74.050781 C 32.4375 79.816406 34.53125 85.210938 37.308594 90.078125 Z M 82.707031 15.894531 C 82.230469 15.054688 82.527344 13.988281 83.367188 13.507812 C 84.207031 13.03125 85.273438 13.328125 85.753906 14.167969 C 88.695312 19.324219 90.917969 25.046875 92.273438 31.167969 C 93.578125 37.066406 94.082031 43.324219 93.652344 49.789062 C 93.445312 52.917969 93.023438 56.011719 92.40625 59.050781 C 91.777344 62.148438 90.945312 65.167969 89.9375 68.082031 C 89.621094 68.992188 88.621094 69.476562 87.707031 69.15625 C 86.796875 68.839844 86.3125 67.839844 86.632812 66.929688 C 87.597656 64.140625 88.386719 61.28125 88.980469 58.363281 C 89.558594 55.507812 89.957031 52.570312 90.15625 49.566406 C 90.566406 43.417969 90.09375 37.488281 88.859375 31.921875 C 87.578125 26.160156 85.484375 20.765625 82.707031 15.894531 Z M 22.804688 81.996094 C 23.253906 82.851562 22.929688 83.910156 22.070312 84.359375 C 21.214844 84.8125 20.15625 84.484375 19.707031 83.625 C 17.484375 79.398438 15.867188 74.917969 14.933594 70.25 C 14.027344 65.722656 13.761719 60.996094 14.203125 56.140625 C 14.316406 54.867188 14.480469 53.625 14.679688 52.414062 C 14.882812 51.195312 15.136719 49.960938 15.433594 48.714844 C 15.660156 47.777344 16.601562 47.199219 17.539062 47.417969 C 18.480469 47.644531 19.058594 48.585938 18.835938 49.523438 C 18.566406 50.644531 18.335938 51.792969 18.136719 52.976562 C 17.945312 54.148438 17.792969 55.308594 17.6875 56.453125 C 17.277344 60.941406 17.527344 65.332031 18.375 69.558594 C 19.246094 73.914062 20.746094 78.078125 22.804688 81.996094 Z M 103.386719 61.484375 Z M 96.511719 22.679688 C 96.039062 21.839844 96.335938 20.773438 97.179688 20.300781 C 98.019531 19.828125 99.085938 20.125 99.558594 20.96875 C 102.042969 25.375 103.867188 30.070312 104.929688 34.976562 C 105.960938 39.734375 106.28125 44.714844 105.816406 49.839844 C 105.636719 51.828125 105.335938 53.78125 104.9375 55.695312 C 104.527344 57.671875 104.003906 59.605469 103.386719 61.484375 C 103.085938 62.40625 102.09375 62.90625 101.171875 62.601562 C 100.253906 62.300781 99.753906 61.308594 100.054688 60.386719 C 100.644531 58.59375 101.136719 56.789062 101.511719 54.984375 C 101.890625 53.171875 102.167969 51.347656 102.335938 49.523438 C 102.769531 44.777344 102.464844 40.152344 101.5 35.714844 C 100.503906 31.128906 98.8125 26.757812 96.511719 22.679688 Z M 96.511719 22.679688 " fill-opacity="1" fill-rule="nonzero"/></g></svg>