<svg xmlns="http://www.w3.org/2000/svg" xmlns:xlink="http://www.w3.org/1999/xlink" width="160" zoomAndPan="magnify" viewBox="0 0 120 106.499997" height="142" preserveAspectRatio="xMidYMid meet" version="1.0"><defs><clipPath id="bd9ea1781b"><path d="M 60.191406 53 L 61.554688 53 L 61.554688 54.367188 L 60.191406 54.367188 Z M 60.191406 53 " clip-rule="nonzero"/></clipPath><clipPath id="49f67c6a21"><path d="M 60.871094 53 C 60.496094 53 60.191406 53.308594 60.191406 53.683594 C 60.191406 54.0625 60.496094 54.367188 60.871094 54.367188 C 61.25 54.367188 61.554688 54.0625 61.554688 53.683594 C 61.554688 53.308594 61.25 53 60.871094 53 Z M 60.871094 53 " clip-rule="nonzero"/></clipPath><clipPath id="0bcda20d12"><path d="M 4.355469 0 L 50 0 L 50 46 L 4.355469 46 Z M 4.355469 0 " clip-rule="nonzero"/></clipPath><clipPath id="1444f562d2"><path d="M 70 0 L 115.582031 0 L 115.582031 46 L 70 46 Z M 70 0 " clip-rule="nonzero"/></clipPath></defs><g clip-path="url(#bd9ea1781b)"><g clip-path="url(#49f67c6a21)"><path fill="#7d8a50" d="M 60.191406 53 L 61.554688 53 L 61.554688 54.367188 L 60.191406 54.367188 Z M 60.191406 53 " fill-opacity="1" fill-rule="nonzero"/></g></g><g clip-path="url(#0bcda20d12)"><path fill="#023047" d="M 18.496094 29.410156 C 26.382812 36.859375 35.984375 42.25 46.414062 45.242188 L 46.527344 45.277344 L 16.867188 12.996094 C 16.738281 12.851562 16.742188 12.632812 16.878906 12.496094 L 16.882812 12.488281 C 17.019531 12.351562 17.242188 12.347656 17.382812 12.480469 L 49.667969 42.140625 L 49.632812 42.023438 C 46.640625 31.59375 41.25 21.992188 33.800781 14.105469 C 33.152344 13.421875 32.5 12.75 31.835938 12.085938 L 21.257812 1.507812 C 19.753906 0.00390625 17.3125 0.00390625 15.808594 1.507812 L 5.898438 11.417969 C 4.394531 12.921875 4.394531 15.363281 5.898438 16.867188 L 16.476562 27.445312 C 17.140625 28.109375 17.8125 28.765625 18.496094 29.410156 " fill-opacity="1" fill-rule="nonzero"/></g><g clip-path="url(#1444f562d2)"><path fill="#023047" d="M 114.082031 11.417969 L 109.125 6.464844 L 104.171875 1.507812 C 102.667969 0.00390625 100.226562 0.00390625 98.71875 1.507812 L 88.144531 12.085938 C 87.480469 12.75 86.824219 13.421875 86.175781 14.105469 C 78.730469 21.992188 73.335938 31.59375 70.34375 42.023438 L 70.3125 42.140625 L 102.59375 12.480469 C 102.738281 12.347656 102.957031 12.351562 103.09375 12.488281 L 103.097656 12.496094 C 103.234375 12.632812 103.242188 12.851562 103.109375 12.996094 L 73.449219 45.277344 L 73.566406 45.242188 C 83.992188 42.25 93.597656 36.859375 101.480469 29.410156 C 102.164062 28.765625 102.839844 28.109375 103.503906 27.445312 L 114.082031 16.867188 C 115.585938 15.363281 115.585938 12.921875 114.082031 11.417969 " fill-opacity="1" fill-rule="nonzero"/></g><path fill="#023047" d="M 94.59375 85.902344 C 94.820312 85.679688 94.820312 85.3125 94.59375 85.085938 L 94.585938 85.078125 C 94.359375 84.851562 93.996094 84.851562 93.769531 85.078125 L 93.105469 85.742188 L 64.613281 57.25 L 61.640625 60.222656 L 90.132812 88.714844 L 89.46875 89.378906 C 89.242188 89.605469 89.242188 89.972656 89.46875 90.199219 L 89.476562 90.207031 C 89.699219 90.429688 90.066406 90.429688 90.292969 90.207031 L 90.957031 89.539062 L 107.175781 105.761719 C 107.429688 106.015625 107.847656 106.015625 108.101562 105.761719 L 110.148438 103.710938 C 110.402344 103.457031 110.402344 103.042969 110.148438 102.785156 L 93.929688 86.566406 L 94.59375 85.902344 " fill-opacity="1" fill-rule="nonzero"/><path fill="#023047" d="M 55.363281 53.949219 L 58.335938 50.976562 L 51.234375 43.875 L 48.261719 46.847656 L 55.363281 53.949219 " fill-opacity="1" fill-rule="nonzero"/><path fill="#023047" d="M 29.847656 88.714844 L 71.714844 46.847656 L 68.742188 43.875 L 26.875 85.742188 L 26.207031 85.078125 C 25.984375 84.851562 25.617188 84.851562 25.390625 85.078125 L 25.382812 85.085938 C 25.15625 85.3125 25.15625 85.679688 25.382812 85.902344 L 26.046875 86.566406 L 9.828125 102.785156 C 9.574219 103.042969 9.574219 103.457031 9.828125 103.710938 L 11.878906 105.761719 C 12.132812 106.015625 12.546875 106.015625 12.800781 105.761719 L 29.019531 89.539062 L 29.6875 90.207031 C 29.910156 90.429688 30.277344 90.429688 30.503906 90.207031 L 30.511719 90.199219 C 30.738281 89.972656 30.738281 89.605469 30.511719 89.378906 L 29.847656 88.714844 " fill-opacity="1" fill-rule="nonzero"/></svg>