<svg xmlns="http://www.w3.org/2000/svg" xmlns:xlink="http://www.w3.org/1999/xlink" width="200" zoomAndPan="magnify" viewBox="0 0 150 149.999998" height="200" preserveAspectRatio="xMidYMid meet" version="1.0"><defs><clipPath id="a637c06023"><path d="M 150 75 C 150 76.226562 149.96875 77.453125 149.910156 78.679688 C 149.847656 79.90625 149.757812 81.128906 149.640625 82.351562 C 149.519531 83.574219 149.367188 84.789062 149.1875 86.003906 C 149.007812 87.21875 148.796875 88.429688 148.558594 89.632812 C 148.320312 90.835938 148.050781 92.03125 147.753906 93.222656 C 147.453125 94.414062 147.125 95.597656 146.769531 96.769531 C 146.414062 97.945312 146.027344 99.109375 145.617188 100.265625 C 145.203125 101.421875 144.761719 102.566406 144.289062 103.703125 C 143.820312 104.835938 143.324219 105.957031 142.800781 107.066406 C 142.273438 108.175781 141.722656 109.273438 141.144531 110.355469 C 140.566406 111.4375 139.960938 112.503906 139.328125 113.558594 C 138.699219 114.609375 138.042969 115.648438 137.359375 116.667969 C 136.679688 117.6875 135.972656 118.691406 135.242188 119.675781 C 134.507812 120.664062 133.753906 121.628906 132.976562 122.578125 C 132.195312 123.527344 131.394531 124.457031 130.570312 125.367188 C 129.746094 126.277344 128.902344 127.164062 128.03125 128.03125 C 127.164062 128.902344 126.277344 129.746094 125.367188 130.570312 C 124.457031 131.394531 123.527344 132.195312 122.578125 132.976562 C 121.628906 133.753906 120.664062 134.507812 119.675781 135.242188 C 118.691406 135.972656 117.6875 136.679688 116.667969 137.359375 C 115.648438 138.042969 114.609375 138.699219 113.558594 139.328125 C 112.503906 139.960938 111.4375 140.566406 110.355469 141.144531 C 109.273438 141.722656 108.175781 142.273438 107.066406 142.800781 C 105.957031 143.324219 104.835938 143.820312 103.703125 144.289062 C 102.566406 144.761719 101.421875 145.203125 100.265625 145.617188 C 99.109375 146.027344 97.945312 146.414062 96.769531 146.769531 C 95.597656 147.125 94.414062 147.453125 93.222656 147.753906 C 92.03125 148.050781 90.835938 148.320312 89.632812 148.558594 C 88.429688 148.796875 87.21875 149.007812 86.003906 149.1875 C 84.789062 149.367188 83.574219 149.519531 82.351562 149.640625 C 81.128906 149.757812 79.90625 149.847656 78.679688 149.910156 C 77.453125 149.96875 76.226562 150 75 150 C 73.773438 150 72.546875 149.96875 71.320312 149.910156 C 70.09375 149.847656 68.871094 149.757812 67.648438 149.640625 C 66.425781 149.519531 65.210938 149.367188 63.996094 149.1875 C 62.78125 149.007812 61.570312 148.796875 60.367188 148.558594 C 59.164062 148.320312 57.96875 148.050781 56.777344 147.753906 C 55.585938 147.453125 54.402344 147.125 53.230469 146.769531 C 52.054688 146.414062 50.890625 146.027344 49.734375 145.617188 C 48.578125 145.203125 47.433594 144.761719 46.296875 144.289062 C 45.164062 143.820312 44.042969 143.324219 42.933594 142.800781 C 41.824219 142.273438 40.726562 141.722656 39.644531 141.144531 C 38.5625 140.566406 37.496094 139.960938 36.441406 139.328125 C 35.390625 138.699219 34.351562 138.042969 33.332031 137.359375 C 32.3125 136.679688 31.308594 135.972656 30.324219 135.242188 C 29.335938 134.507812 28.371094 133.753906 27.421875 132.976562 C 26.472656 132.195312 25.542969 131.394531 24.632812 130.570312 C 23.722656 129.746094 22.835938 128.902344 21.96875 128.03125 C 21.097656 127.164062 20.253906 126.277344 19.429688 125.367188 C 18.605469 124.457031 17.804688 123.527344 17.023438 122.578125 C 16.246094 121.628906 15.492188 120.664062 14.757812 119.675781 C 14.027344 118.691406 13.320312 117.6875 12.640625 116.667969 C 11.957031 115.648438 11.300781 114.609375 10.671875 113.558594 C 10.039062 112.503906 9.433594 111.4375 8.855469 110.355469 C 8.277344 109.273438 7.726562 108.175781 7.199219 107.066406 C 6.675781 105.957031 6.179688 104.835938 5.710938 103.703125 C 5.238281 102.566406 4.796875 101.421875 4.382812 100.265625 C 3.96875 99.109375 3.585938 97.945312 3.230469 96.769531 C 2.875 95.597656 2.546875 94.414062 2.246094 93.222656 C 1.949219 92.03125 1.679688 90.835938 1.441406 89.632812 C 1.203125 88.429688 0.992188 87.21875 0.8125 86.003906 C 0.632812 84.789062 0.480469 83.574219 0.359375 82.351562 C 0.242188 81.128906 0.152344 79.90625 0.0898438 78.679688 C 0.03125 77.453125 0 76.226562 0 75 C 0 73.773438 0.03125 72.546875 0.0898438 71.320312 C 0.152344 70.09375 0.242188 68.871094 0.359375 67.648438 C 0.480469 66.425781 0.632812 65.210938 0.8125 63.996094 C 0.992188 62.78125 1.203125 61.570312 1.441406 60.367188 C 1.679688 59.164062 1.949219 57.96875 2.246094 56.777344 C 2.546875 55.585938 2.875 54.402344 3.230469 53.230469 C 3.585938 52.054688 3.96875 50.890625 4.382812 49.734375 C 4.796875 48.578125 5.238281 47.433594 5.710938 46.296875 C 6.179688 45.164062 6.675781 44.042969 7.199219 42.933594 C 7.726562 41.824219 8.277344 40.726562 8.855469 39.644531 C 9.433594 38.5625 10.039062 37.496094 10.671875 36.441406 C 11.300781 35.390625 11.957031 34.351562 12.640625 33.332031 C 13.320312 32.3125 14.027344 31.308594 14.757812 30.324219 C 15.492188 29.335938 16.246094 28.371094 17.023438 27.421875 C 17.804688 26.472656 18.605469 25.542969 19.429688 24.632812 C 20.253906 23.722656 21.097656 22.835938 21.96875 21.96875 C 22.835938 21.097656 23.722656 20.253906 24.632812 19.429688 C 25.542969 18.605469 26.472656 17.804688 27.421875 17.023438 C 28.371094 16.246094 29.335938 15.492188 30.324219 14.757812 C 31.308594 14.027344 32.3125 13.320312 33.332031 12.640625 C 34.351562 11.957031 35.390625 11.300781 36.441406 10.671875 C 37.496094 10.039062 38.5625 9.433594 39.644531 8.855469 C 40.726562 8.277344 41.824219 7.726562 42.933594 7.199219 C 44.042969 6.675781 45.164062 6.179688 46.296875 5.710938 C 47.433594 5.238281 48.578125 4.796875 49.734375 4.382812 C 50.890625 3.96875 52.054688 3.585938 53.230469 3.230469 C 54.402344 2.875 55.585938 2.546875 56.777344 2.246094 C 57.96875 1.949219 59.164062 1.679688 60.367188 1.441406 C 61.570312 1.203125 62.78125 0.992188 63.996094 0.8125 C 65.210938 0.632812 66.425781 0.480469 67.648438 0.359375 C 68.871094 0.242188 70.09375 0.152344 71.320312 0.0898438 C 72.546875 0.03125 73.773438 0 75 0 C 76.226562 0 77.453125 0.03125 78.679688 0.0898438 C 79.90625 0.152344 81.128906 0.242188 82.351562 0.359375 C 83.574219 0.480469 84.789062 0.632812 86.003906 0.8125 C 87.21875 0.992188 88.429688 1.203125 89.632812 1.441406 C 90.835938 1.679688 92.03125 1.949219 93.222656 2.246094 C 94.414062 2.546875 95.597656 2.875 96.769531 3.230469 C 97.945312 3.585938 99.109375 3.96875 100.265625 4.382812 C 101.421875 4.796875 102.566406 5.238281 103.703125 5.710938 C 104.835938 6.179688 105.957031 6.675781 107.066406 7.199219 C 108.175781 7.726562 109.273438 8.277344 110.355469 8.855469 C 111.4375 9.433594 112.503906 10.039062 113.558594 10.671875 C 114.609375 11.300781 115.648438 11.957031 116.667969 12.640625 C 117.6875 13.320312 118.691406 14.027344 119.675781 14.757812 C 120.664062 15.492188 121.628906 16.246094 122.578125 17.023438 C 123.527344 17.804688 124.457031 18.605469 125.367188 19.429688 C 126.277344 20.253906 127.164062 21.097656 128.03125 21.96875 C 128.902344 22.835938 129.746094 23.722656 130.570312 24.632812 C 131.394531 25.542969 132.195312 26.472656 132.976562 27.421875 C 133.753906 28.371094 134.507812 29.335938 135.242188 30.324219 C 135.972656 31.308594 136.679688 32.3125 137.359375 33.332031 C 138.042969 34.351562 138.699219 35.390625 139.328125 36.441406 C 139.960938 37.496094 140.566406 38.5625 141.144531 39.644531 C 141.722656 40.726562 142.273438 41.824219 142.800781 42.933594 C 143.324219 44.042969 143.820312 45.164062 144.289062 46.296875 C 144.761719 47.433594 145.203125 48.578125 145.617188 49.734375 C 146.027344 50.890625 146.414062 52.054688 146.769531 53.230469 C 147.125 54.402344 147.453125 55.585938 147.753906 56.777344 C 148.050781 57.96875 148.320312 59.164062 148.558594 60.367188 C 148.796875 61.570312 149.007812 62.78125 149.1875 63.996094 C 149.367188 65.210938 149.519531 66.425781 149.640625 67.648438 C 149.757812 68.871094 149.847656 70.09375 149.910156 71.320312 C 149.96875 72.546875 150 73.773438 150 75 Z M 150 75 " clip-rule="nonzero"/></clipPath><linearGradient x1="0.0498967" gradientTransform="matrix(0.488599, 0, 0, 0.488599, 0.00000125, 0.000002)" y1="307.049897" x2="307.050602" gradientUnits="userSpaceOnUse" y2="0.0506029" id="969129d78c"><stop stop-opacity="1" stop-color="rgb(99.598694%, 75.299072%, 32.499695%)" offset="0"/><stop stop-opacity="1" stop-color="rgb(99.598694%, 75.299072%, 32.499695%)" offset="0.125"/><stop stop-opacity="1" stop-color="rgb(99.598694%, 75.299072%, 32.499695%)" offset="0.140625"/><stop stop-opacity="1" stop-color="rgb(99.583435%, 75.102234%, 32.473755%)" offset="0.144531"/><stop stop-opacity="1" stop-color="rgb(99.569702%, 74.906921%, 32.447815%)" offset="0.148437"/><stop stop-opacity="1" stop-color="rgb(99.514771%, 74.171448%, 32.351685%)" offset="0.152344"/><stop stop-opacity="1" stop-color="rgb(99.459839%, 73.435974%, 32.255554%)" offset="0.15625"/><stop stop-opacity="1" stop-color="rgb(99.404907%, 72.7005%, 32.159424%)" offset="0.160156"/><stop stop-opacity="1" stop-color="rgb(99.349976%, 71.965027%, 32.063293%)" offset="0.164062"/><stop stop-opacity="1" stop-color="rgb(99.295044%, 71.229553%, 31.967163%)" offset="0.167969"/><stop stop-opacity="1" stop-color="rgb(99.240112%, 70.49408%, 31.872559%)" offset="0.171875"/><stop stop-opacity="1" stop-color="rgb(99.185181%, 69.758606%, 31.776428%)" offset="0.175781"/><stop stop-opacity="1" stop-color="rgb(99.130249%, 69.023132%, 31.680298%)" offset="0.179687"/><stop stop-opacity="1" stop-color="rgb(99.073792%, 68.287659%, 31.584167%)" offset="0.183594"/><stop stop-opacity="1" stop-color="rgb(99.01886%, 67.552185%, 31.488037%)" offset="0.1875"/><stop stop-opacity="1" stop-color="rgb(98.963928%, 66.816711%, 31.391907%)" offset="0.191406"/><stop stop-opacity="1" stop-color="rgb(98.908997%, 66.081238%, 31.295776%)" offset="0.195312"/><stop stop-opacity="1" stop-color="rgb(98.854065%, 65.345764%, 31.199646%)" offset="0.199219"/><stop stop-opacity="1" stop-color="rgb(98.799133%, 64.611816%, 31.103516%)" offset="0.203125"/><stop stop-opacity="1" stop-color="rgb(98.744202%, 63.876343%, 31.007385%)" offset="0.207031"/><stop stop-opacity="1" stop-color="rgb(98.68927%, 63.140869%, 30.911255%)" offset="0.210937"/><stop stop-opacity="1" stop-color="rgb(98.634338%, 62.405396%, 30.815125%)" offset="0.214844"/><stop stop-opacity="1" stop-color="rgb(98.579407%, 61.669922%, 30.718994%)" offset="0.21875"/><stop stop-opacity="1" stop-color="rgb(98.524475%, 60.934448%, 30.622864%)" offset="0.222656"/><stop stop-opacity="1" stop-color="rgb(98.469543%, 60.198975%, 30.528259%)" offset="0.226562"/><stop stop-opacity="1" stop-color="rgb(98.414612%, 59.463501%, 30.432129%)" offset="0.230469"/><stop stop-opacity="1" stop-color="rgb(98.35968%, 58.728027%, 30.335999%)" offset="0.234375"/><stop stop-opacity="1" stop-color="rgb(98.303223%, 57.992554%, 30.239868%)" offset="0.238281"/><stop stop-opacity="1" stop-color="rgb(98.248291%, 57.25708%, 30.143738%)" offset="0.242188"/><stop stop-opacity="1" stop-color="rgb(98.193359%, 56.521606%, 30.047607%)" offset="0.246094"/><stop stop-opacity="1" stop-color="rgb(98.138428%, 55.786133%, 29.951477%)" offset="0.25"/><stop stop-opacity="1" stop-color="rgb(98.083496%, 55.050659%, 29.855347%)" offset="0.253906"/><stop stop-opacity="1" stop-color="rgb(98.028564%, 54.315186%, 29.759216%)" offset="0.257812"/><stop stop-opacity="1" stop-color="rgb(97.973633%, 53.579712%, 29.663086%)" offset="0.261719"/><stop stop-opacity="1" stop-color="rgb(97.918701%, 52.845764%, 29.566956%)" offset="0.265625"/><stop stop-opacity="1" stop-color="rgb(97.86377%, 52.110291%, 29.470825%)" offset="0.269531"/><stop stop-opacity="1" stop-color="rgb(97.808838%, 51.374817%, 29.374695%)" offset="0.273437"/><stop stop-opacity="1" stop-color="rgb(97.753906%, 50.639343%, 29.278564%)" offset="0.277344"/><stop stop-opacity="1" stop-color="rgb(97.698975%, 49.90387%, 29.18396%)" offset="0.28125"/><stop stop-opacity="1" stop-color="rgb(97.644043%, 49.168396%, 29.08783%)" offset="0.285156"/><stop stop-opacity="1" stop-color="rgb(97.589111%, 48.432922%, 28.991699%)" offset="0.289062"/><stop stop-opacity="1" stop-color="rgb(97.532654%, 47.697449%, 28.895569%)" offset="0.292969"/><stop stop-opacity="1" stop-color="rgb(97.477722%, 46.961975%, 28.799438%)" offset="0.296875"/><stop stop-opacity="1" stop-color="rgb(97.422791%, 46.226501%, 28.703308%)" offset="0.300781"/><stop stop-opacity="1" stop-color="rgb(97.367859%, 45.491028%, 28.607178%)" offset="0.304687"/><stop stop-opacity="1" stop-color="rgb(97.312927%, 44.755554%, 28.511047%)" offset="0.308594"/><stop stop-opacity="1" stop-color="rgb(97.257996%, 44.020081%, 28.414917%)" offset="0.3125"/><stop stop-opacity="1" stop-color="rgb(97.203064%, 43.284607%, 28.318787%)" offset="0.316406"/><stop stop-opacity="1" stop-color="rgb(97.148132%, 42.549133%, 28.222656%)" offset="0.320312"/><stop stop-opacity="1" stop-color="rgb(97.093201%, 41.81366%, 28.126526%)" offset="0.324219"/><stop stop-opacity="1" stop-color="rgb(97.038269%, 41.079712%, 28.030396%)" offset="0.328125"/><stop stop-opacity="1" stop-color="rgb(96.983337%, 40.344238%, 27.934265%)" offset="0.332031"/><stop stop-opacity="1" stop-color="rgb(96.928406%, 39.608765%, 27.839661%)" offset="0.335938"/><stop stop-opacity="1" stop-color="rgb(96.873474%, 38.873291%, 27.74353%)" offset="0.339844"/><stop stop-opacity="1" stop-color="rgb(96.818542%, 38.137817%, 27.6474%)" offset="0.34375"/><stop stop-opacity="1" stop-color="rgb(96.763611%, 37.402344%, 27.55127%)" offset="0.347656"/><stop stop-opacity="1" stop-color="rgb(96.708679%, 36.66687%, 27.455139%)" offset="0.351562"/><stop stop-opacity="1" stop-color="rgb(96.652222%, 35.931396%, 27.359009%)" offset="0.355469"/><stop stop-opacity="1" stop-color="rgb(96.59729%, 35.195923%, 27.262878%)" offset="0.359375"/><stop stop-opacity="1" stop-color="rgb(96.542358%, 34.460449%, 27.166748%)" offset="0.363281"/><stop stop-opacity="1" stop-color="rgb(96.487427%, 33.724976%, 27.070618%)" offset="0.367187"/><stop stop-opacity="1" stop-color="rgb(96.432495%, 32.989502%, 26.974487%)" offset="0.371094"/><stop stop-opacity="1" stop-color="rgb(96.377563%, 32.254028%, 26.878357%)" offset="0.375"/><stop stop-opacity="1" stop-color="rgb(96.322632%, 31.518555%, 26.782227%)" offset="0.378906"/><stop stop-opacity="1" stop-color="rgb(96.2677%, 30.783081%, 26.686096%)" offset="0.382812"/><stop stop-opacity="1" stop-color="rgb(96.212769%, 30.047607%, 26.589966%)" offset="0.386719"/><stop stop-opacity="1" stop-color="rgb(96.157837%, 29.312134%, 26.495361%)" offset="0.390625"/><stop stop-opacity="1" stop-color="rgb(96.102905%, 28.57666%, 26.399231%)" offset="0.394531"/><stop stop-opacity="1" stop-color="rgb(96.047974%, 27.842712%, 26.303101%)" offset="0.398437"/><stop stop-opacity="1" stop-color="rgb(95.993042%, 27.107239%, 26.20697%)" offset="0.402344"/><stop stop-opacity="1" stop-color="rgb(95.93811%, 26.371765%, 26.11084%)" offset="0.40625"/><stop stop-opacity="1" stop-color="rgb(95.881653%, 25.636292%, 26.014709%)" offset="0.410156"/><stop stop-opacity="1" stop-color="rgb(95.826721%, 24.900818%, 25.918579%)" offset="0.414062"/><stop stop-opacity="1" stop-color="rgb(95.77179%, 24.165344%, 25.822449%)" offset="0.417969"/><stop stop-opacity="1" stop-color="rgb(95.716858%, 23.429871%, 25.726318%)" offset="0.421875"/><stop stop-opacity="1" stop-color="rgb(95.661926%, 22.694397%, 25.630188%)" offset="0.425781"/><stop stop-opacity="1" stop-color="rgb(95.606995%, 21.958923%, 25.534058%)" offset="0.429688"/><stop stop-opacity="1" stop-color="rgb(95.552063%, 21.22345%, 25.437927%)" offset="0.433594"/><stop stop-opacity="1" stop-color="rgb(95.497131%, 20.487976%, 25.341797%)" offset="0.4375"/><stop stop-opacity="1" stop-color="rgb(95.4422%, 19.752502%, 25.245667%)" offset="0.441406"/><stop stop-opacity="1" stop-color="rgb(95.387268%, 19.017029%, 25.151062%)" offset="0.445312"/><stop stop-opacity="1" stop-color="rgb(95.332336%, 18.281555%, 25.054932%)" offset="0.449219"/><stop stop-opacity="1" stop-color="rgb(95.277405%, 17.546082%, 24.958801%)" offset="0.453125"/><stop stop-opacity="1" stop-color="rgb(95.222473%, 16.810608%, 24.862671%)" offset="0.457031"/><stop stop-opacity="1" stop-color="rgb(95.167542%, 16.07666%, 24.766541%)" offset="0.460937"/><stop stop-opacity="1" stop-color="rgb(95.111084%, 15.341187%, 24.67041%)" offset="0.464844"/><stop stop-opacity="1" stop-color="rgb(95.056152%, 14.605713%, 24.57428%)" offset="0.46875"/><stop stop-opacity="1" stop-color="rgb(95.001221%, 13.870239%, 24.478149%)" offset="0.472656"/><stop stop-opacity="1" stop-color="rgb(94.946289%, 13.134766%, 24.382019%)" offset="0.476562"/><stop stop-opacity="1" stop-color="rgb(94.621277%, 12.812805%, 24.882507%)" offset="0.480469"/><stop stop-opacity="1" stop-color="rgb(94.297791%, 12.490845%, 25.382996%)" offset="0.484375"/><stop stop-opacity="1" stop-color="rgb(93.766785%, 12.483215%, 26.33667%)" offset="0.488281"/><stop stop-opacity="1" stop-color="rgb(93.237305%, 12.477112%, 27.29187%)" offset="0.492187"/><stop stop-opacity="1" stop-color="rgb(92.707825%, 12.469482%, 28.245544%)" offset="0.496094"/><stop stop-opacity="1" stop-color="rgb(92.178345%, 12.463379%, 29.199219%)" offset="0.5"/><stop stop-opacity="1" stop-color="rgb(91.648865%, 12.45575%, 30.152893%)" offset="0.503906"/><stop stop-opacity="1" stop-color="rgb(91.119385%, 12.449646%, 31.108093%)" offset="0.507812"/><stop stop-opacity="1" stop-color="rgb(90.588379%, 12.442017%, 32.061768%)" offset="0.511719"/><stop stop-opacity="1" stop-color="rgb(90.058899%, 12.435913%, 33.015442%)" offset="0.515625"/><stop stop-opacity="1" stop-color="rgb(89.529419%, 12.428284%, 33.969116%)" offset="0.519531"/><stop stop-opacity="1" stop-color="rgb(88.999939%, 12.42218%, 34.924316%)" offset="0.523437"/><stop stop-opacity="1" stop-color="rgb(88.468933%, 12.414551%, 35.877991%)" offset="0.527344"/><stop stop-opacity="1" stop-color="rgb(87.939453%, 12.408447%, 36.831665%)" offset="0.53125"/><stop stop-opacity="1" stop-color="rgb(87.409973%, 12.400818%, 37.785339%)" offset="0.535156"/><stop stop-opacity="1" stop-color="rgb(86.880493%, 12.394714%, 38.74054%)" offset="0.539062"/><stop stop-opacity="1" stop-color="rgb(86.351013%, 12.387085%, 39.694214%)" offset="0.542969"/><stop stop-opacity="1" stop-color="rgb(85.821533%, 12.380981%, 40.647888%)" offset="0.546875"/><stop stop-opacity="1" stop-color="rgb(85.290527%, 12.373352%, 41.601562%)" offset="0.550781"/><stop stop-opacity="1" stop-color="rgb(84.761047%, 12.367249%, 42.556763%)" offset="0.554687"/><stop stop-opacity="1" stop-color="rgb(84.231567%, 12.359619%, 43.510437%)" offset="0.558594"/><stop stop-opacity="1" stop-color="rgb(83.702087%, 12.353516%, 44.464111%)" offset="0.5625"/><stop stop-opacity="1" stop-color="rgb(83.171082%, 12.345886%, 45.417786%)" offset="0.566406"/><stop stop-opacity="1" stop-color="rgb(82.641602%, 12.339783%, 46.372986%)" offset="0.570312"/><stop stop-opacity="1" stop-color="rgb(82.112122%, 12.332153%, 47.32666%)" offset="0.574219"/><stop stop-opacity="1" stop-color="rgb(81.582642%, 12.32605%, 48.280334%)" offset="0.578125"/><stop stop-opacity="1" stop-color="rgb(81.053162%, 12.31842%, 49.234009%)" offset="0.582031"/><stop stop-opacity="1" stop-color="rgb(80.523682%, 12.312317%, 50.189209%)" offset="0.585937"/><stop stop-opacity="1" stop-color="rgb(79.992676%, 12.304688%, 51.142883%)" offset="0.589844"/><stop stop-opacity="1" stop-color="rgb(79.463196%, 12.298584%, 52.096558%)" offset="0.59375"/><stop stop-opacity="1" stop-color="rgb(78.933716%, 12.290955%, 53.050232%)" offset="0.597656"/><stop stop-opacity="1" stop-color="rgb(78.404236%, 12.284851%, 54.005432%)" offset="0.601562"/><stop stop-opacity="1" stop-color="rgb(77.874756%, 12.277222%, 54.959106%)" offset="0.605469"/><stop stop-opacity="1" stop-color="rgb(77.345276%, 12.271118%, 55.912781%)" offset="0.609375"/><stop stop-opacity="1" stop-color="rgb(76.81427%, 12.263489%, 56.866455%)" offset="0.613281"/><stop stop-opacity="1" stop-color="rgb(76.28479%, 12.257385%, 57.821655%)" offset="0.617187"/><stop stop-opacity="1" stop-color="rgb(75.75531%, 12.249756%, 58.77533%)" offset="0.621094"/><stop stop-opacity="1" stop-color="rgb(75.22583%, 12.243652%, 59.729004%)" offset="0.625"/><stop stop-opacity="1" stop-color="rgb(74.694824%, 12.236023%, 60.682678%)" offset="0.628906"/><stop stop-opacity="1" stop-color="rgb(74.165344%, 12.229919%, 61.637878%)" offset="0.632812"/><stop stop-opacity="1" stop-color="rgb(73.635864%, 12.22229%, 62.591553%)" offset="0.636719"/><stop stop-opacity="1" stop-color="rgb(73.106384%, 12.216187%, 63.545227%)" offset="0.640625"/><stop stop-opacity="1" stop-color="rgb(72.576904%, 12.208557%, 64.498901%)" offset="0.644531"/><stop stop-opacity="1" stop-color="rgb(72.047424%, 12.202454%, 65.454102%)" offset="0.648437"/><stop stop-opacity="1" stop-color="rgb(71.342468%, 12.489319%, 65.942383%)" offset="0.652344"/><stop stop-opacity="1" stop-color="rgb(70.639038%, 12.77771%, 66.430664%)" offset="0.65625"/><stop stop-opacity="1" stop-color="rgb(69.882202%, 13.154602%, 66.777039%)" offset="0.660156"/><stop stop-opacity="1" stop-color="rgb(69.125366%, 13.53302%, 67.123413%)" offset="0.664062"/><stop stop-opacity="1" stop-color="rgb(68.36853%, 13.909912%, 67.469788%)" offset="0.667969"/><stop stop-opacity="1" stop-color="rgb(67.611694%, 14.28833%, 67.817688%)" offset="0.671875"/><stop stop-opacity="1" stop-color="rgb(66.854858%, 14.665222%, 68.164062%)" offset="0.675781"/><stop stop-opacity="1" stop-color="rgb(66.098022%, 15.042114%, 68.510437%)" offset="0.679688"/><stop stop-opacity="1" stop-color="rgb(65.341187%, 15.419006%, 68.856812%)" offset="0.683594"/><stop stop-opacity="1" stop-color="rgb(64.584351%, 15.797424%, 69.203186%)" offset="0.6875"/><stop stop-opacity="1" stop-color="rgb(63.827515%, 16.174316%, 69.549561%)" offset="0.691406"/><stop stop-opacity="1" stop-color="rgb(63.070679%, 16.552734%, 69.897461%)" offset="0.695312"/><stop stop-opacity="1" stop-color="rgb(62.313843%, 16.929626%, 70.243835%)" offset="0.699219"/><stop stop-opacity="1" stop-color="rgb(61.557007%, 17.308044%, 70.59021%)" offset="0.703125"/><stop stop-opacity="1" stop-color="rgb(60.800171%, 17.684937%, 70.936584%)" offset="0.707031"/><stop stop-opacity="1" stop-color="rgb(60.043335%, 18.061829%, 71.282959%)" offset="0.710937"/><stop stop-opacity="1" stop-color="rgb(59.286499%, 18.438721%, 71.629333%)" offset="0.714844"/><stop stop-opacity="1" stop-color="rgb(58.529663%, 18.817139%, 71.977234%)" offset="0.71875"/><stop stop-opacity="1" stop-color="rgb(57.772827%, 19.194031%, 72.323608%)" offset="0.722656"/><stop stop-opacity="1" stop-color="rgb(57.015991%, 19.572449%, 72.669983%)" offset="0.726562"/><stop stop-opacity="1" stop-color="rgb(56.259155%, 19.949341%, 73.016357%)" offset="0.730469"/><stop stop-opacity="1" stop-color="rgb(55.502319%, 20.326233%, 73.362732%)" offset="0.734375"/><stop stop-opacity="1" stop-color="rgb(54.745483%, 20.703125%, 73.709106%)" offset="0.738281"/><stop stop-opacity="1" stop-color="rgb(53.988647%, 21.081543%, 74.057007%)" offset="0.742187"/><stop stop-opacity="1" stop-color="rgb(53.231812%, 21.458435%, 74.403381%)" offset="0.746094"/><stop stop-opacity="1" stop-color="rgb(52.474976%, 21.836853%, 74.749756%)" offset="0.75"/><stop stop-opacity="1" stop-color="rgb(51.71814%, 22.213745%, 75.09613%)" offset="0.753906"/><stop stop-opacity="1" stop-color="rgb(50.961304%, 22.592163%, 75.444031%)" offset="0.757812"/><stop stop-opacity="1" stop-color="rgb(50.204468%, 22.969055%, 75.790405%)" offset="0.761719"/><stop stop-opacity="1" stop-color="rgb(49.447632%, 23.345947%, 76.13678%)" offset="0.765625"/><stop stop-opacity="1" stop-color="rgb(48.690796%, 23.722839%, 76.483154%)" offset="0.769531"/><stop stop-opacity="1" stop-color="rgb(47.93396%, 24.101257%, 76.829529%)" offset="0.773437"/><stop stop-opacity="1" stop-color="rgb(47.177124%, 24.478149%, 77.175903%)" offset="0.777344"/><stop stop-opacity="1" stop-color="rgb(46.420288%, 24.856567%, 77.523804%)" offset="0.78125"/><stop stop-opacity="1" stop-color="rgb(45.663452%, 25.233459%, 77.870178%)" offset="0.785156"/><stop stop-opacity="1" stop-color="rgb(44.906616%, 25.611877%, 78.216553%)" offset="0.789062"/><stop stop-opacity="1" stop-color="rgb(44.14978%, 25.98877%, 78.562927%)" offset="0.792969"/><stop stop-opacity="1" stop-color="rgb(43.392944%, 26.365662%, 78.909302%)" offset="0.796875"/><stop stop-opacity="1" stop-color="rgb(42.636108%, 26.742554%, 79.255676%)" offset="0.800781"/><stop stop-opacity="1" stop-color="rgb(41.879272%, 27.120972%, 79.603577%)" offset="0.804688"/><stop stop-opacity="1" stop-color="rgb(41.122437%, 27.497864%, 79.949951%)" offset="0.808594"/><stop stop-opacity="1" stop-color="rgb(40.365601%, 27.876282%, 80.296326%)" offset="0.8125"/><stop stop-opacity="1" stop-color="rgb(39.608765%, 28.253174%, 80.6427%)" offset="0.816406"/><stop stop-opacity="1" stop-color="rgb(38.851929%, 28.631592%, 80.989075%)" offset="0.820312"/><stop stop-opacity="1" stop-color="rgb(38.095093%, 29.008484%, 81.335449%)" offset="0.824219"/><stop stop-opacity="1" stop-color="rgb(37.338257%, 29.385376%, 81.68335%)" offset="0.828125"/><stop stop-opacity="1" stop-color="rgb(36.581421%, 29.762268%, 82.029724%)" offset="0.832031"/><stop stop-opacity="1" stop-color="rgb(35.824585%, 30.140686%, 82.376099%)" offset="0.835938"/><stop stop-opacity="1" stop-color="rgb(35.067749%, 30.517578%, 82.722473%)" offset="0.839844"/><stop stop-opacity="1" stop-color="rgb(34.310913%, 30.895996%, 83.068848%)" offset="0.84375"/><stop stop-opacity="1" stop-color="rgb(33.554077%, 31.272888%, 83.415222%)" offset="0.847656"/><stop stop-opacity="1" stop-color="rgb(32.797241%, 31.651306%, 83.763123%)" offset="0.851562"/><stop stop-opacity="1" stop-color="rgb(32.647705%, 31.724548%, 83.830261%)" offset="0.859375"/><stop stop-opacity="1" stop-color="rgb(32.499695%, 31.799316%, 83.898926%)" offset="0.875"/><stop stop-opacity="1" stop-color="rgb(32.499695%, 31.799316%, 83.898926%)" offset="1"/></linearGradient></defs><rect x="-15" width="180" fill="#ffffff" y="-15" height="179.999997" fill-opacity="1"/><rect x="-15" width="180" fill="#ffffff" y="-15" height="179.999997" fill-opacity="1"/><g clip-path="url(#a637c06023)"><rect x="-15" fill="url(#969129d78c)" width="180" y="-15" height="179.999997"/></g><path fill="#ffffff" d="M 95.121094 120.261719 L 55.140625 120.261719 C 41.277344 120.261719 30 108.984375 30 95.121094 L 30 55.140625 C 30 41.277344 41.277344 30 55.140625 30 L 95.121094 30 C 108.984375 30 120.261719 41.277344 120.261719 55.140625 L 120.261719 95.121094 C 120.261719 108.984375 108.984375 120.261719 95.121094 120.261719 Z M 55.140625 36.109375 C 44.648438 36.109375 36.109375 44.648438 36.109375 55.140625 L 36.109375 95.121094 C 36.109375 105.613281 44.648438 114.152344 55.140625 114.152344 L 95.121094 114.152344 C 105.613281 114.152344 114.152344 105.613281 114.152344 95.121094 L 114.152344 55.140625 C 114.152344 44.648438 105.613281 36.109375 95.121094 36.109375 Z M 55.140625 36.109375 " fill-opacity="1" fill-rule="nonzero"/><path fill="#ffffff" d="M 75.132812 97.488281 C 62.804688 97.488281 52.777344 87.460938 52.777344 75.132812 C 52.777344 62.804688 62.804688 52.777344 75.132812 52.777344 C 87.460938 52.777344 97.488281 62.804688 97.488281 75.132812 C 97.488281 87.460938 87.460938 97.488281 75.132812 97.488281 Z M 75.132812 58.886719 C 66.175781 58.886719 58.886719 66.171875 58.886719 75.132812 C 58.886719 84.089844 66.175781 91.375 75.132812 91.375 C 84.089844 91.375 91.378906 84.089844 91.378906 75.132812 C 91.378906 66.171875 84.089844 58.886719 75.132812 58.886719 Z M 75.132812 58.886719 " fill-opacity="1" fill-rule="nonzero"/></svg>