<svg xmlns="http://www.w3.org/2000/svg" xmlns:xlink="http://www.w3.org/1999/xlink" width="200" zoomAndPan="magnify" viewBox="0 0 150 149.999998" height="200" preserveAspectRatio="xMidYMid meet" version="1.0"><defs><clipPath id="3e81e9d639"><path d="M 1.160156 1.160156 L 148.910156 1.160156 L 148.910156 148.910156 L 1.160156 148.910156 Z M 1.160156 1.160156 " clip-rule="nonzero"/></clipPath><clipPath id="98454310a8"><path d="M 20 13 L 148.910156 13 L 148.910156 148.910156 L 20 148.910156 Z M 20 13 " clip-rule="nonzero"/></clipPath></defs><rect x="-15" width="180" fill="#ffffff" y="-15" height="179.999997" fill-opacity="1"/><rect x="-15" width="180" fill="#ffffff" y="-15" height="179.999997" fill-opacity="1"/><g clip-path="url(#3e81e9d639)"><path fill="#f73140" d="M 148.910156 75.035156 C 148.910156 76.246094 148.878906 77.453125 148.820312 78.660156 C 148.761719 79.867188 148.671875 81.074219 148.554688 82.277344 C 148.4375 83.480469 148.289062 84.679688 148.109375 85.875 C 147.933594 87.070312 147.726562 88.261719 147.492188 89.449219 C 147.253906 90.632812 146.992188 91.8125 146.695312 92.984375 C 146.402344 94.160156 146.082031 95.324219 145.730469 96.480469 C 145.378906 97.636719 145 98.785156 144.59375 99.921875 C 144.183594 101.0625 143.75 102.1875 143.285156 103.304688 C 142.824219 104.421875 142.335938 105.527344 141.816406 106.621094 C 141.300781 107.714844 140.757812 108.792969 140.1875 109.859375 C 139.617188 110.925781 139.023438 111.976562 138.398438 113.015625 C 137.777344 114.050781 137.132812 115.074219 136.460938 116.078125 C 135.789062 117.082031 135.09375 118.070312 134.371094 119.042969 C 133.652344 120.015625 132.910156 120.964844 132.140625 121.902344 C 131.375 122.835938 130.585938 123.75 129.773438 124.648438 C 128.960938 125.542969 128.128906 126.417969 127.273438 127.273438 C 126.417969 128.128906 125.542969 128.960938 124.648438 129.773438 C 123.75 130.585938 122.835938 131.375 121.902344 132.140625 C 120.964844 132.910156 120.015625 133.652344 119.042969 134.371094 C 118.070312 135.09375 117.082031 135.789062 116.078125 136.460938 C 115.074219 137.132812 114.050781 137.777344 113.015625 138.398438 C 111.976562 139.023438 110.925781 139.617188 109.859375 140.1875 C 108.792969 140.757812 107.714844 141.300781 106.621094 141.816406 C 105.527344 142.335938 104.421875 142.824219 103.304688 143.285156 C 102.1875 143.75 101.0625 144.183594 99.921875 144.59375 C 98.785156 145 97.636719 145.378906 96.480469 145.730469 C 95.324219 146.082031 94.160156 146.402344 92.984375 146.695312 C 91.8125 146.992188 90.632812 147.253906 89.449219 147.492188 C 88.261719 147.726562 87.070312 147.933594 85.875 148.109375 C 84.679688 148.289062 83.480469 148.4375 82.277344 148.554688 C 81.074219 148.671875 79.867188 148.761719 78.660156 148.820312 C 77.453125 148.878906 76.246094 148.910156 75.035156 148.910156 C 73.828125 148.910156 72.617188 148.878906 71.410156 148.820312 C 70.203125 148.761719 68.996094 148.671875 67.792969 148.554688 C 66.589844 148.4375 65.390625 148.289062 64.195312 148.109375 C 63 147.933594 61.808594 147.726562 60.625 147.492188 C 59.4375 147.253906 58.257812 146.992188 57.085938 146.695312 C 55.914062 146.402344 54.746094 146.082031 53.589844 145.730469 C 52.433594 145.378906 51.285156 145 50.148438 144.59375 C 49.007812 144.183594 47.882812 143.75 46.765625 143.285156 C 45.648438 142.824219 44.542969 142.335938 43.449219 141.816406 C 42.355469 141.300781 41.277344 140.757812 40.210938 140.1875 C 39.144531 139.617188 38.09375 139.023438 37.054688 138.398438 C 36.019531 137.777344 34.996094 137.132812 33.992188 136.460938 C 32.988281 135.789062 32 135.09375 31.027344 134.371094 C 30.058594 133.652344 29.105469 132.910156 28.167969 132.140625 C 27.234375 131.375 26.320312 130.585938 25.425781 129.773438 C 24.527344 128.960938 23.652344 128.128906 22.796875 127.273438 C 21.941406 126.417969 21.109375 125.542969 20.296875 124.648438 C 19.484375 123.75 18.695312 122.835938 17.929688 121.902344 C 17.164062 120.964844 16.417969 120.015625 15.699219 119.042969 C 14.976562 118.070312 14.28125 117.082031 13.609375 116.078125 C 12.9375 115.074219 12.292969 114.050781 11.671875 113.015625 C 11.050781 111.976562 10.453125 110.925781 9.882812 109.859375 C 9.3125 108.792969 8.769531 107.714844 8.253906 106.621094 C 7.734375 105.527344 7.246094 104.421875 6.785156 103.304688 C 6.320312 102.1875 5.886719 101.0625 5.480469 99.921875 C 5.070312 98.785156 4.691406 97.636719 4.339844 96.480469 C 3.992188 95.324219 3.667969 94.160156 3.375 92.984375 C 3.082031 91.8125 2.816406 90.632812 2.578125 89.449219 C 2.34375 88.261719 2.136719 87.070312 1.960938 85.875 C 1.78125 84.679688 1.632812 83.480469 1.515625 82.277344 C 1.398438 81.074219 1.308594 79.867188 1.25 78.660156 C 1.191406 77.453125 1.160156 76.246094 1.160156 75.035156 C 1.160156 73.828125 1.191406 72.617188 1.25 71.410156 C 1.308594 70.203125 1.398438 68.996094 1.515625 67.792969 C 1.632812 66.589844 1.78125 65.390625 1.960938 64.195312 C 2.136719 63 2.34375 61.808594 2.578125 60.625 C 2.816406 59.4375 3.082031 58.257812 3.375 57.085938 C 3.667969 55.914062 3.992188 54.746094 4.339844 53.589844 C 4.691406 52.433594 5.070312 51.285156 5.480469 50.148438 C 5.886719 49.007812 6.320312 47.882812 6.785156 46.765625 C 7.246094 45.648438 7.734375 44.542969 8.253906 43.449219 C 8.769531 42.355469 9.3125 41.277344 9.882812 40.210938 C 10.453125 39.144531 11.050781 38.09375 11.671875 37.054688 C 12.292969 36.019531 12.9375 34.996094 13.609375 33.992188 C 14.28125 32.988281 14.976562 32 15.699219 31.027344 C 16.417969 30.058594 17.164062 29.105469 17.929688 28.167969 C 18.695312 27.234375 19.484375 26.320312 20.296875 25.425781 C 21.109375 24.527344 21.941406 23.652344 22.796875 22.796875 C 23.652344 21.941406 24.527344 21.109375 25.425781 20.296875 C 26.320312 19.484375 27.234375 18.695312 28.167969 17.929688 C 29.105469 17.164062 30.058594 16.417969 31.027344 15.699219 C 32 14.976562 32.988281 14.28125 33.992188 13.609375 C 34.996094 12.9375 36.019531 12.292969 37.054688 11.671875 C 38.09375 11.050781 39.144531 10.453125 40.210938 9.882812 C 41.277344 9.3125 42.355469 8.769531 43.449219 8.253906 C 44.542969 7.734375 45.648438 7.246094 46.765625 6.785156 C 47.882812 6.320312 49.007812 5.886719 50.148438 5.480469 C 51.285156 5.070312 52.433594 4.691406 53.589844 4.339844 C 54.746094 3.992188 55.914062 3.667969 57.085938 3.375 C 58.257812 3.082031 59.4375 2.816406 60.625 2.578125 C 61.808594 2.34375 63 2.136719 64.195312 1.960938 C 65.390625 1.78125 66.589844 1.632812 67.792969 1.515625 C 68.996094 1.398438 70.203125 1.308594 71.410156 1.25 C 72.617188 1.191406 73.828125 1.160156 75.035156 1.160156 C 76.246094 1.160156 77.453125 1.191406 78.660156 1.25 C 79.867188 1.308594 81.074219 1.398438 82.277344 1.515625 C 83.480469 1.632812 84.679688 1.78125 85.875 1.960938 C 87.070312 2.136719 88.261719 2.34375 89.449219 2.578125 C 90.632812 2.816406 91.8125 3.082031 92.984375 3.375 C 94.160156 3.667969 95.324219 3.992188 96.480469 4.339844 C 97.636719 4.691406 98.785156 5.070312 99.921875 5.480469 C 101.0625 5.886719 102.1875 6.320312 103.304688 6.785156 C 104.421875 7.246094 105.527344 7.734375 106.621094 8.253906 C 107.714844 8.769531 108.792969 9.3125 109.859375 9.882812 C 110.925781 10.453125 111.976562 11.050781 113.015625 11.671875 C 114.050781 12.292969 115.074219 12.9375 116.078125 13.609375 C 117.082031 14.28125 118.070312 14.976562 119.042969 15.699219 C 120.015625 16.417969 120.964844 17.164062 121.902344 17.929688 C 122.835938 18.695312 123.75 19.484375 124.648438 20.296875 C 125.542969 21.109375 126.417969 21.941406 127.273438 22.796875 C 128.128906 23.652344 128.960938 24.527344 129.773438 25.425781 C 130.585938 26.320312 131.375 27.234375 132.140625 28.167969 C 132.910156 29.105469 133.652344 30.058594 134.371094 31.027344 C 135.09375 32 135.789062 32.988281 136.460938 33.992188 C 137.132812 34.996094 137.777344 36.019531 138.398438 37.054688 C 139.023438 38.09375 139.617188 39.144531 140.1875 40.210938 C 140.757812 41.277344 141.300781 42.355469 141.816406 43.449219 C 142.335938 44.542969 142.824219 45.648438 143.285156 46.765625 C 143.75 47.882812 144.183594 49.007812 144.59375 50.148438 C 145 51.285156 145.378906 52.433594 145.730469 53.589844 C 146.082031 54.746094 146.402344 55.914062 146.695312 57.085938 C 146.992188 58.257812 147.253906 59.4375 147.492188 60.625 C 147.726562 61.808594 147.933594 63 148.109375 64.195312 C 148.289062 65.390625 148.4375 66.589844 148.554688 67.792969 C 148.671875 68.996094 148.761719 70.203125 148.820312 71.410156 C 148.878906 72.617188 148.910156 73.828125 148.910156 75.035156 Z M 148.910156 75.035156 " fill-opacity="1" fill-rule="nonzero"/></g><g clip-path="url(#98454310a8)"><path fill="#e5253c" d="M 148.910156 75.035156 C 148.910156 115.835938 115.835938 148.910156 75.035156 148.910156 C 53.394531 148.910156 33.929688 139.605469 20.417969 124.78125 C 32.234375 132.800781 46.5 137.484375 61.851562 137.484375 C 102.652344 137.484375 135.726562 104.410156 135.726562 63.609375 C 135.726562 44.449219 128.433594 26.992188 116.46875 13.867188 C 136.046875 27.152344 148.910156 49.589844 148.910156 75.035156 Z M 148.910156 75.035156 " fill-opacity="1" fill-rule="nonzero"/></g><path fill="#ffffff" d="M 55.070312 109.722656 C 54.003906 109.71875 52.976562 109.515625 51.988281 109.117188 C 51 108.714844 50.117188 108.148438 49.347656 107.414062 C 48.539062 106.640625 47.914062 105.738281 47.476562 104.707031 C 47.039062 103.675781 46.824219 102.601562 46.832031 101.480469 L 46.832031 48.589844 C 46.824219 47.46875 47.039062 46.394531 47.476562 45.363281 C 47.914062 44.335938 48.539062 43.433594 49.347656 42.660156 C 50.117188 41.921875 51 41.355469 51.988281 40.957031 C 52.976562 40.558594 54.003906 40.355469 55.070312 40.347656 C 56.539062 40.351562 57.90625 40.722656 59.175781 41.460938 L 104.984375 67.90625 C 105.609375 68.269531 106.179688 68.703125 106.691406 69.214844 C 107.199219 69.726562 107.636719 70.292969 108 70.921875 C 108.359375 71.546875 108.632812 72.207031 108.820312 72.90625 C 109.007812 73.601562 109.101562 74.3125 109.101562 75.035156 C 109.101562 75.757812 109.007812 76.46875 108.820312 77.164062 C 108.632812 77.863281 108.359375 78.523438 108 79.152344 C 107.636719 79.777344 107.199219 80.34375 106.691406 80.855469 C 106.179688 81.367188 105.609375 81.800781 104.984375 82.164062 L 59.175781 108.609375 C 57.90625 109.347656 56.539062 109.71875 55.070312 109.722656 Z M 55.070312 109.722656 " fill-opacity="1" fill-rule="nonzero"/></svg>